<?xml version="1.0" encoding="UTF-8" standalone="no"?>
<!-- Created with Inkscape (http://www.inkscape.org/) -->
<svg
   xmlns:svg="http://www.w3.org/2000/svg"
   xmlns="http://www.w3.org/2000/svg"
   version="1.0"
   width="209"
   height="53"
   id="svg2583">
  <defs
     id="defs2585" />
  <g
     transform="translate(-261.21426,-723.00507)"
     id="layer1">
    <path
       d="M 290.79619,756.55601 L 275.46806,756.55601 L 272.78199,762.80405 C 272.12019,764.34173 271.7893,765.49012 271.78931,766.24923 C 271.7893,766.85262 272.0764,767.38302 272.6506,767.84043 C 273.22479,768.29784 274.46564,768.59467 276.37315,768.73092 L 276.37315,769.81119 L 263.90627,769.81119 L 263.90627,768.73092 C 265.56073,768.43896 266.63126,768.05941 267.11788,767.59226 C 268.11055,766.65798 269.21028,764.76021 270.41707,761.89896 L 284.34378,729.31573 L 285.36565,729.31573 L 299.14637,762.24931 C 300.2558,764.89646 301.26308,766.61418 302.1682,767.40249 C 303.07325,768.19079 304.33356,768.6336 305.94914,768.73092 L 305.94914,769.81119 L 290.32905,769.81119 L 290.32905,768.73092 C 291.90563,768.65307 292.97129,768.3903 293.52606,767.94262 C 294.08076,767.49494 294.35812,766.94994 294.35816,766.30762 C 294.35812,765.45119 293.96884,764.09843 293.1903,762.24931 L 290.79619,756.55601 z M 289.97869,754.39547 L 283.26351,738.39582 L 276.37315,754.39547 L 289.97869,754.39547 z M 323.67138,765.95726 C 320.9269,768.07887 319.20431,769.30512 318.50361,769.63601 C 317.45253,770.12262 316.33333,770.36592 315.14602,770.36592 C 313.29691,770.36592 311.77383,769.73333 310.57678,768.46816 C 309.37972,767.20298 308.78119,765.53878 308.7812,763.47556 C 308.78119,762.17146 309.07316,761.04254 309.65709,760.08878 C 310.45512,758.76522 311.84195,757.5195 313.81758,756.35163 C 315.7932,755.18379 319.07779,753.7629 323.67138,752.08895 L 323.67138,751.03788 C 323.67136,748.37129 323.24802,746.54165 322.40134,745.54895 C 321.55462,744.5563 320.32351,744.05996 318.70799,744.05993 C 317.48172,744.05996 316.50851,744.39085 315.78834,745.05261 C 315.04869,745.71442 314.67887,746.47353 314.67888,747.32993 L 314.73727,749.02333 C 314.73726,749.9187 314.50856,750.60968 314.05115,751.09627 C 313.59374,751.5829 312.99521,751.8262 312.25557,751.82618 C 311.53539,751.8262 310.94659,751.57317 310.48919,751.06708 C 310.03177,750.56102 309.80307,749.87004 309.80307,748.99413 C 309.80307,747.32022 310.6595,745.78254 312.37236,744.38109 C 314.08521,742.97969 316.48905,742.27898 319.58388,742.27895 C 321.95851,742.27898 323.90493,742.67799 325.42317,743.476 C 326.57154,744.07942 327.41824,745.02344 327.96326,746.30806 C 328.31359,747.14504 328.48877,748.8579 328.48879,751.44663 L 328.48879,760.52672 C 328.48877,763.07655 328.53743,764.63856 328.63478,765.21275 C 328.73207,765.78695 328.89266,766.17137 329.11652,766.36601 C 329.34033,766.56066 329.59824,766.65798 329.89022,766.65798 C 330.20163,766.65798 330.47413,766.58985 330.70772,766.4536 C 331.11645,766.20057 331.90475,765.49012 333.07263,764.32226 L 333.07263,765.95726 C 330.89261,768.87691 328.80993,770.33673 326.8246,770.33673 C 325.87083,770.33673 325.11172,770.00583 324.54727,769.34405 C 323.98279,768.68226 323.69083,767.55334 323.67138,765.95726 L 323.67138,765.95726 z M 323.67138,764.05949 L 323.67138,753.86993 C 320.73226,755.03781 318.83449,755.86504 317.97807,756.35163 C 316.44039,757.20807 315.34065,758.10343 314.67888,759.03771 C 314.01708,759.972 313.68619,760.99388 313.6862,762.10333 C 313.68619,763.50477 314.10467,764.66776 314.94164,765.59231 C 315.7786,766.51686 316.74208,766.97914 317.83209,766.97914 C 319.31137,766.97914 321.25779,766.00593 323.67138,764.05949 L 323.67138,764.05949 z M 360.78006,749.60725 C 363.52449,750.1912 365.57797,751.12549 366.94051,752.41011 C 368.82851,754.20084 369.77252,756.39057 369.77256,758.97931 C 369.77252,760.94521 369.14967,762.82838 367.90399,764.62882 C 366.65824,766.42927 364.95025,767.74311 362.78001,768.57034 C 360.60972,769.39758 357.29592,769.81119 352.83863,769.81119 L 334.1529,769.81119 L 334.1529,768.73092 L 335.64192,768.73092 C 337.29638,768.73092 338.4837,768.20539 339.20389,767.15432 C 339.65156,766.47307 339.8754,765.02298 339.87541,762.80405 L 339.87541,737.22796 C 339.8754,734.7755 339.59317,733.22809 339.02871,732.58573 C 338.2696,731.72934 337.14067,731.30112 335.64192,731.30109 L 334.1529,731.30109 L 334.1529,730.22082 L 351.26202,730.22082 C 354.45414,730.22086 357.01369,730.45443 358.94068,730.92153 C 361.8603,731.62228 364.08896,732.86313 365.62667,734.64408 C 367.16431,736.42509 367.93315,738.47371 367.93319,740.78993 C 367.93315,742.77531 367.32976,744.55143 366.12301,746.11828 C 364.91619,747.68518 363.13521,748.84817 360.78006,749.60725 L 360.78006,749.60725 z M 345.48112,748.03065 C 346.20129,748.16692 347.02365,748.26911 347.94822,748.33721 C 348.87276,748.40536 349.88977,748.43942 350.99925,748.4394 C 353.84102,748.43942 355.97722,748.13286 357.40787,747.51971 C 358.83847,746.90661 359.93333,745.96746 360.69247,744.70225 C 361.45155,743.4371 361.8311,742.05514 361.83113,740.55636 C 361.8311,738.24014 360.88708,736.26451 358.99907,734.62948 C 357.11101,732.99452 354.35682,732.17702 350.73648,732.17698 C 348.79004,732.17702 347.03825,732.39112 345.48112,732.8193 L 345.48112,748.03065 z M 345.48112,766.94994 C 347.73897,767.47548 349.96762,767.73825 352.16711,767.73824 C 355.69012,767.73825 358.37619,766.94508 360.22532,765.35873 C 362.0744,763.7724 362.99896,761.81137 362.99899,759.47565 C 362.99896,757.93798 362.58047,756.4587 361.74354,755.03779 C 360.90655,753.61692 359.54405,752.49772 357.65604,751.6802 C 355.76798,750.86272 353.43227,750.45397 350.64889,750.45395 C 349.44209,750.45397 348.41048,750.47343 347.55407,750.51234 C 346.69763,750.55129 346.00664,750.61942 345.48112,750.71672 L 345.48112,766.94994 z M 382.29784,747.68029 C 384.88658,744.07942 387.6797,742.27898 390.67722,742.27895 C 393.42166,742.27898 395.81577,743.4517 397.85954,745.79712 C 399.90326,748.14259 400.92514,751.34933 400.92517,755.41735 C 400.92514,760.16664 399.34853,763.99137 396.19534,766.89155 C 393.48979,769.38298 390.47282,770.62869 387.14445,770.62869 C 385.58729,770.62869 384.00582,770.34646 382.40003,769.782 C 380.79421,769.21753 379.15435,768.37084 377.48042,767.2419 L 377.48042,739.53448 C 377.48042,736.49809 377.40743,734.62952 377.26145,733.92877 C 377.11547,733.22809 376.88676,732.75121 376.57534,732.49814 C 376.2639,732.24514 375.87462,732.11862 375.40748,732.11859 C 374.86248,732.11862 374.18123,732.27434 373.36373,732.58573 L 372.95498,731.56385 L 380.984,728.29385 L 382.29784,728.29385 L 382.29784,747.68029 z M 382.29784,749.54886 L 382.29784,765.54851 C 383.29051,766.52173 384.31725,767.25651 385.37806,767.75284 C 386.43885,768.24918 387.52399,768.49735 388.63347,768.49735 C 390.4047,768.49735 392.0543,767.52414 393.58226,765.57771 C 395.11019,763.63128 395.87416,760.79923 395.87418,757.08154 C 395.87416,753.65584 395.11019,751.0233 393.58226,749.18391 C 392.0543,747.34455 390.31711,746.42487 388.3707,746.42484 C 387.33908,746.42487 386.30747,746.68763 385.27587,747.21315 C 384.49729,747.60245 383.50461,748.38103 382.29784,749.54886 L 382.29784,749.54886 z M 438.99733,729.31573 L 439.90242,742.77529 L 438.99733,742.77529 C 437.79051,738.74621 436.06792,735.84603 433.82956,734.07475 C 431.59113,732.30353 428.90506,731.41791 425.77134,731.41787 C 423.14364,731.41791 420.769,732.08456 418.64741,733.41783 C 416.52579,734.75117 414.85672,736.87764 413.64022,739.79725 C 412.42369,742.71692 411.81543,746.34701 411.81544,750.68752 C 411.81543,754.26897 412.38963,757.37352 413.53803,760.00119 C 414.68641,762.62887 416.41387,764.64343 418.7204,766.04485 C 421.0269,767.44628 423.65944,768.147 426.61804,768.14699 C 429.1873,768.147 431.45488,767.59713 433.42081,766.4974 C 435.38667,765.39767 437.5472,763.2128 439.90242,759.94279 L 440.80751,760.52672 C 438.82211,764.04977 436.50586,766.62878 433.85875,768.26378 C 431.21158,769.89878 428.0681,770.71628 424.4283,770.71628 C 417.86882,770.71628 412.78864,768.28325 409.18776,763.41717 C 406.50168,759.79682 405.15865,755.53415 405.15865,750.62913 C 405.15865,746.6779 406.04427,743.04781 407.81553,739.73886 C 409.58677,736.42996 412.02467,733.86554 415.12924,732.0456 C 418.23378,730.22572 421.62543,729.31577 425.3042,729.31573 C 428.16542,729.31577 430.98774,730.01648 433.77116,731.41787 C 434.58863,731.84612 435.17256,732.06023 435.52295,732.06019 C 436.04845,732.06023 436.50586,731.87532 436.89518,731.50546 C 437.40122,730.97996 437.76131,730.25005 437.97545,729.31573 L 438.99733,729.31573 z M 467.52225,759.65083 C 466.80205,763.17387 465.39089,765.88427 463.28877,767.78204 C 461.18661,769.67981 458.86063,770.62869 456.31082,770.62869 C 453.27438,770.62869 450.62724,769.35378 448.36939,766.80396 C 446.11153,764.25414 444.9826,760.80896 444.9826,756.46842 C 444.9826,752.26415 446.23318,748.84817 448.73434,746.22047 C 451.2355,743.59281 454.23786,742.27898 457.74144,742.27895 C 460.36911,742.27898 462.52964,742.97482 464.22305,744.36649 C 465.91643,745.75821 466.76312,747.20344 466.76315,748.70216 C 466.76312,749.44183 466.52468,750.04035 466.04783,750.49775 C 465.57093,750.95518 464.90428,751.18388 464.04788,751.18386 C 462.89946,751.18388 462.0333,750.81406 461.44939,750.0744 C 461.11848,749.66567 460.89951,748.8871 460.79247,747.73868 C 460.6854,746.59031 460.29125,745.71442 459.61002,745.111 C 458.92875,744.5271 457.98473,744.23513 456.77796,744.23511 C 454.83152,744.23513 453.26465,744.95531 452.07734,746.39565 C 450.50072,748.30317 449.71242,750.82379 449.71242,753.95752 C 449.71242,757.14968 450.49585,759.96713 452.06274,762.40989 C 453.6296,764.85267 455.74634,766.07405 458.41296,766.07405 C 460.32045,766.07405 462.0333,765.422 463.55154,764.11789 C 464.62205,763.22253 465.66339,761.59727 466.67556,759.24208 L 467.52225,759.65083 z "
       style="font-size:59.79431152px;font-style:normal;font-weight:normal;text-align:center;text-anchor:middle;fill:#000000;fill-opacity:1;stroke:none;stroke-width:1px;stroke-linecap:butt;stroke-linejoin:miter;stroke-opacity:1;font-family:Times New Roman"
       id="text2591" />
  </g>
</svg>
