<?xml version="1.0" encoding="UTF-8" standalone="no"?>
<!-- Created with Inkscape (http://www.inkscape.org/) -->
<svg
   xmlns:svg="http://www.w3.org/2000/svg"
   xmlns="http://www.w3.org/2000/svg"
   version="1.0"
   width="209"
   height="53"
   id="svg2583">
  <defs
     id="defs2585" />
  <g
     transform="translate(-261.21426,-723.00507)"
     id="layer1">
    <path
       d="M 418.83563,772.12038 C 414.34662,771.84926 410.46347,770.18129 407.40871,767.21203 C 405.20929,765.07421 403.70824,762.59535 402.64447,759.34428 C 401.73732,756.57201 401.29435,753.65487 401.21708,749.94461 C 401.09247,743.96146 402.29292,739.14794 404.90335,735.1634 C 407.81388,730.72082 411.78424,728.06675 416.90426,727.14112 C 418.40469,726.86987 418.91249,726.83376 421.19069,726.8363 C 423.5345,726.83892 424.31804,726.90678 426.04664,727.25689 C 428.6474,727.78365 431.09533,728.91346 432.88093,730.4112 C 433.59422,731.00951 434.74905,732.20059 435.35333,732.9612 C 436.75649,734.72743 437.76243,736.7437 438.2484,738.76394 C 438.4026,739.40508 438.60616,740.59468 438.60616,740.85489 C 438.60616,740.9432 438.34257,740.95212 435.73086,740.95212 L 432.85558,740.95212 L 432.79012,740.69732 C 432.16102,738.24887 431.1778,736.41791 429.68511,734.91525 C 428.10586,733.32543 426.21846,732.43601 423.57986,732.03818 C 422.5545,731.8836 419.79975,731.88489 418.82265,732.04042 C 414.10314,732.79168 410.50776,735.73825 408.71806,740.32158 C 408.0308,742.08166 407.58139,744.13216 407.33166,746.64736 C 407.18485,748.12598 407.18433,751.63295 407.33075,752.94211 C 407.76997,756.86972 408.86658,759.86691 410.80641,762.44153 C 411.31111,763.11139 412.45171,764.22406 413.12938,764.7076 C 414.28303,765.53076 416.07234,766.30035 417.53375,766.60193 C 419.09031,766.92315 421.34199,767.03487 422.65946,766.85626 C 425.92106,766.41407 428.25933,765.09027 430.17467,762.60154 C 431.49948,760.88011 432.42859,758.64557 433.17519,755.38507 L 433.21293,755.22021 L 436.08941,755.22021 C 438.26059,755.22021 438.96586,755.23756 438.96586,755.29099 C 438.96586,755.32992 438.89752,755.80038 438.81398,756.33643 C 438.26165,759.88101 436.92712,763.00329 434.83257,765.65151 C 434.13931,766.528 432.60071,768.0398 431.76763,768.66301 C 428.924,770.79031 425.70507,771.89423 421.67028,772.12586 C 420.52912,772.19137 419.99394,772.19034 418.83563,772.12038 z M 311.16395,772.0628 C 308.648,771.83888 306.66506,770.944 305.00339,769.28259 C 303.5767,767.85615 302.77105,766.2676 302.48451,764.31598 C 302.34565,763.3702 302.3914,761.45172 302.57456,760.53984 C 303.05467,758.14984 304.19159,756.4844 306.2936,755.09197 C 307.52897,754.27365 309.16273,753.61471 310.79279,753.27736 C 311.20494,753.19206 313.69913,752.85144 316.33544,752.52042 C 321.51369,751.87023 321.60724,751.85281 322.26599,751.41554 C 322.94181,750.96696 323.27081,750.28728 323.38178,749.11043 C 323.49143,747.94793 323.27347,746.73163 322.80695,745.9024 C 322.56108,745.46535 321.92603,744.82382 321.44102,744.52247 C 320.1005,743.68961 318.24389,743.30926 315.7986,743.36653 C 314.37004,743.39999 313.79051,743.48635 312.81104,743.81172 C 311.74714,744.16513 310.9215,744.72003 310.30219,745.49785 C 309.68158,746.2773 309.29139,747.26865 309.0714,748.62482 L 308.96429,749.28501 L 306.48211,749.28509 L 303.9999,749.28516 L 304.0378,748.5208 C 304.15655,746.12552 304.8312,744.14459 306.04553,742.62562 C 307.56623,740.72339 310.92752,739.24086 314.47069,738.90958 C 315.44279,738.81868 318.22484,738.87154 319.18149,738.99908 C 321.30283,739.28188 322.93195,739.75516 324.4524,740.53033 C 326.47017,741.55906 327.67484,742.92464 328.26204,744.84886 C 328.63752,746.07935 328.61532,745.42552 328.65324,756.35926 C 328.68534,765.61554 328.69532,766.35674 328.79056,766.55851 C 329.17135,767.36531 329.84226,767.51334 331.85022,767.23359 L 332.13496,767.19391 L 332.13496,769.18041 C 332.13496,770.27298 332.12823,771.16709 332.11998,771.1673 C 332.11173,771.16752 331.72812,771.26282 331.26754,771.37907 C 329.75362,771.76115 327.85352,771.79524 326.75825,771.45996 C 325.1151,770.95696 324.14197,769.74965 323.71935,767.68981 C 323.64832,767.34359 323.57298,767.04685 323.55189,767.03036 C 323.53084,767.01387 323.31207,767.22969 323.06576,767.50996 C 321.8423,768.90204 319.70756,770.33453 317.66145,771.13649 C 316.75218,771.49286 315.35256,771.84944 314.38978,771.97002 C 313.42707,772.09058 311.95254,772.13299 311.16395,772.0628 z M 314.47969,767.44686 C 315.98131,767.31775 317.47868,766.89908 318.85605,766.22322 C 319.86709,765.72712 320.46285,765.32384 321.13947,764.67753 C 322.23062,763.63526 322.87493,762.40805 323.17763,760.79556 C 323.25203,760.39931 323.28023,759.70855 323.30446,757.68961 L 323.33562,755.09324 L 323.02709,755.28307 C 322.31696,755.72001 320.93808,756.19389 319.54839,756.47857 C 319.06476,756.57763 317.63349,756.78025 316.36774,756.92883 C 313.76228,757.23467 313.25382,757.31342 312.31558,757.55643 C 310.30533,758.07708 309.10979,758.92264 308.45623,760.28599 C 308.08286,761.06483 308.00627,761.45715 308.00564,762.59406 C 308.00507,763.65438 308.08991,764.09146 308.42443,764.75163 C 309.12372,766.13159 310.92049,767.25191 312.74189,767.44361 C 313.42837,767.51586 313.67197,767.51632 314.47969,767.44686 z M 384.56123,772.0293 C 382.16087,771.84179 380.35889,771.1766 378.79909,769.90222 C 378.25537,769.45799 377.28651,768.43644 376.72457,767.71486 L 376.28814,767.15447 L 376.27232,769.10074 L 376.25654,771.04701 L 373.79939,771.04701 L 371.34227,771.04701 L 371.34227,749.46501 L 371.34227,727.88301 L 373.92012,727.88301 L 376.49797,727.88301 L 376.49914,735.5716 L 376.50031,743.26018 L 376.72161,742.99041 C 378.60872,740.6899 381.2586,739.20307 384.14617,738.82454 C 385.03031,738.70864 386.67979,738.7082 387.66633,738.8236 C 390.5301,739.15859 392.93085,740.30189 394.90462,742.27062 C 397.18998,744.55016 398.42776,747.50373 398.89948,751.80306 C 399.04182,753.10048 399.04165,756.2037 398.89916,757.49831 C 398.71967,759.12892 398.41446,760.65688 398.01894,761.90486 C 396.88159,765.49351 394.84987,768.42407 392.3297,770.1109 C 390.95804,771.02901 389.21748,771.66943 387.43883,771.91046 C 386.76192,772.00219 385.09534,772.07102 384.56123,772.0293 z M 385.88015,767.26845 C 388.17047,767.05465 389.90911,766.07972 391.1769,764.29826 C 391.66321,763.61493 392.37289,762.17042 392.67686,761.24518 C 393.72977,758.04016 393.86748,753.63998 393.01649,750.39424 C 392.34363,747.82792 391.03067,745.75138 389.40667,744.68499 C 388.20212,743.89404 386.8844,743.53067 385.2207,743.53067 C 383.48595,743.53067 381.94088,743.97175 380.56941,744.85849 C 378.03623,746.49636 376.84318,748.58137 376.33843,752.25269 C 376.25285,752.87504 376.23131,753.44263 376.23148,755.07034 C 376.2317,757.324 376.29863,758.12506 376.62133,759.73665 C 377.3745,763.49792 379.24686,765.93377 382.10328,766.86835 C 383.2658,767.24871 384.58946,767.38893 385.88015,767.26845 z M 453.50374,771.90987 C 450.62836,771.68991 448.51388,770.92333 446.51957,769.37784 C 444.36814,767.71061 442.51774,764.84926 441.64212,761.83568 C 440.6008,758.25187 440.64776,753.26284 441.76021,749.29168 C 443.18611,744.20141 446.79455,740.4127 451.38728,739.1836 C 452.71032,738.82953 453.30091,738.76538 455.24228,738.76485 C 457.16942,738.76432 457.66048,738.81092 459.09997,739.13093 C 461.4928,739.66287 463.73667,740.91772 464.99339,742.42671 C 466.2941,743.98853 467.12544,745.96927 467.58488,748.60106 C 467.66496,749.05975 467.74967,749.61714 467.77312,749.8397 L 467.81578,750.24436 L 465.23914,750.24436 L 462.66251,750.24436 L 462.56018,749.7198 C 462.32468,748.51257 461.76213,747.15976 461.08311,746.16776 C 460.13651,744.78486 459.05725,744.08426 457.28058,743.6993 C 456.58015,743.54754 454.72759,743.48282 454.00705,743.58496 C 452.27417,743.83058 450.9579,744.4859 449.80507,745.6769 C 447.95501,747.58825 446.89891,750.57716 446.63429,754.65068 C 446.38905,758.42562 447.1042,761.83024 448.63298,764.1658 C 449.75249,765.87611 451.20082,766.81985 453.26394,767.18331 C 454.06705,767.3248 455.5724,767.32692 456.349,767.18766 C 458.74845,766.75739 460.41412,765.41192 461.62766,762.92378 C 461.98245,762.19634 462.36496,761.12705 462.55518,760.33094 L 462.65902,759.89631 L 465.23041,759.89631 C 467.42307,759.89631 467.80181,759.90896 467.80181,759.98224 C 467.80181,760.02951 467.73347,760.44091 467.64998,760.89648 C 466.8731,765.13452 465.19349,767.97022 462.37633,769.80012 C 460.72622,770.87195 458.86332,771.52114 456.65895,771.79253 C 455.94598,771.8803 454.04255,771.95109 453.50374,771.90987 z M 263.61274,771.00205 C 263.61306,770.97732 267.25175,761.28565 271.69867,749.46501 L 279.78401,727.97294 L 283.13123,727.97294 L 286.47844,727.97294 L 294.22919,749.37509 C 298.4921,761.14627 301.99644,770.83817 302.01664,770.91265 L 302.05334,771.04806 L 298.82622,771.03255 L 295.59912,771.01704 L 293.35267,764.55742 L 291.10621,758.09781 L 282.7097,758.09903 L 274.31322,758.10024 L 271.97517,764.5736 L 269.63711,771.04697 L 266.62464,771.04698 C 264.96776,771.047 263.6124,771.02677 263.61274,771.00205 z M 289.2471,752.74727 C 289.13803,752.44228 287.66269,748.20366 285.96856,743.32812 C 283.13271,735.16681 282.88279,734.47715 282.81867,734.63537 C 282.70065,734.92649 276.08174,753.23342 276.08174,753.26868 C 276.08174,753.2869 279.08855,753.30181 282.76358,753.30181 L 289.44542,753.30181 L 289.2471,752.74727 z M 335.07254,749.4932 L 335.07254,727.9394 L 345.42888,727.95909 C 354.89868,727.9771 355.84427,727.9877 356.47468,728.08298 C 360.80042,728.73679 363.64426,730.5714 365.22535,733.72814 C 366.29727,735.86835 366.61888,738.47691 366.12581,741.03194 C 365.5729,743.89713 363.91142,746.08493 361.14393,747.59202 C 360.91733,747.71542 360.73207,747.82987 360.73227,747.84636 C 360.73244,747.86285 360.92785,747.95345 361.1665,748.04772 C 362.62508,748.62381 364.31101,749.59186 365.23699,750.38495 C 366.60026,751.55259 367.65004,753.34192 368.09819,755.26187 C 368.51003,757.0262 368.55576,759.09671 368.22114,760.83057 C 367.6276,763.90625 365.64929,766.8503 363.00922,768.5868 C 360.83626,770.01607 358.18996,770.78791 354.7868,770.98504 C 354.17292,771.02059 349.92207,771.04562 344.40974,771.04613 L 335.07254,771.04701 L 335.07254,749.4932 z M 354.52629,765.95035 C 357.85401,765.71324 360.09183,764.57138 361.43285,762.42625 C 362.50647,760.70884 362.85368,758.24811 362.31947,756.14222 C 361.68843,753.65457 359.72664,752.00691 356.59183,751.33168 C 355.03756,750.99689 355.19098,751.00298 347.73697,750.97995 L 340.82773,750.95859 L 340.82773,758.4849 L 340.82773,766.01121 L 347.25735,766.01068 C 350.92644,766.01038 354.04735,765.98448 354.52629,765.95035 z M 352.75777,746.10541 C 354.70919,745.98351 356.06707,745.68125 357.21574,745.11308 C 359.17234,744.14529 360.20575,742.53237 360.4356,740.08766 C 360.64967,737.81089 359.94134,735.73818 358.5613,734.60305 C 357.50954,733.73795 356.37325,733.30901 354.31648,733.00067 C 353.70491,732.90899 352.90422,732.8948 347.22739,732.87509 L 340.82773,732.85286 L 340.82773,739.51031 L 340.82773,746.16776 L 346.29816,746.16748 C 349.37046,746.16732 352.20224,746.14011 352.75777,746.10541 z "
       style="fill:#000000"
       id="path2692" />
  </g>
</svg>
