<?xml version="1.0" encoding="UTF-8" standalone="no"?>
<svg
   xmlns:dc="http://purl.org/dc/elements/1.1/"
   xmlns:cc="http://creativecommons.org/ns#"
   xmlns:rdf="http://www.w3.org/1999/02/22-rdf-syntax-ns#"
   xmlns:svg="http://www.w3.org/2000/svg"
   xmlns="http://www.w3.org/2000/svg"
   xmlns:xlink="http://www.w3.org/1999/xlink"
   xmlns:sodipodi="http://sodipodi.sourceforge.net/DTD/sodipodi-0.dtd"
   xmlns:inkscape="http://www.inkscape.org/namespaces/inkscape"
   version="1.0"
   width="512"
   height="295"
   id="svg2"
   inkscape:version="0.47pre4 r22446"
   sodipodi:docname="Css_box_model.svg">
  <metadata
     id="metadata82">
    <rdf:RDF>
      <cc:Work
         rdf:about="">
        <dc:format>image/svg+xml</dc:format>
        <dc:type
           rdf:resource="http://purl.org/dc/dcmitype/StillImage" />
        <dc:title></dc:title>
      </cc:Work>
    </rdf:RDF>
  </metadata>
  <sodipodi:namedview
     pagecolor="#ffffff"
     bordercolor="#666666"
     borderopacity="1"
     objecttolerance="10"
     gridtolerance="10"
     guidetolerance="10"
     inkscape:pageopacity="0"
     inkscape:pageshadow="2"
     inkscape:window-width="1920"
     inkscape:window-height="1006"
     id="namedview80"
     showgrid="false"
     inkscape:zoom="2.2627417"
     inkscape:cx="230.74818"
     inkscape:cy="147.5"
     inkscape:window-x="0"
     inkscape:window-y="25"
     inkscape:window-maximized="1"
     inkscape:current-layer="svg2" />
  <defs
     id="defs4">
    <inkscape:perspective
       sodipodi:type="inkscape:persp3d"
       inkscape:vp_x="0 : 147.5 : 1"
       inkscape:vp_y="0 : 1000 : 0"
       inkscape:vp_z="512 : 147.5 : 1"
       inkscape:persp3d-origin="256 : 98.333333 : 1"
       id="perspective84" />
    <marker
       refX="0"
       refY="0"
       orient="auto"
       style="overflow:visible"
       id="Arrow2Mend">
      <path
         d="M 8.7185878,4.0337352 L -2.2072895,0.016013256 L 8.7185884,-4.0017078 C 6.97309,-1.6296469 6.9831476,1.6157441 8.7185878,4.0337352 z "
         transform="scale(-0.6,-0.6)"
         style="font-size:12px;fill-rule:evenodd;stroke-width:0.625;stroke-linejoin:round"
         id="path15525" />
    </marker>
    <marker
       refX="0"
       refY="0"
       orient="auto"
       style="overflow:visible"
       id="Tail">
      <g
         transform="scale(-1.2,-1.2)"
         id="g15504">
        <path
           d="M -3.8048674,-3.9585227 L 0.54352094,0"
           style="fill:none;fill-rule:evenodd;stroke:black;stroke-width:0.80000001;stroke-linecap:round;marker-start:none;marker-end:none"
           id="path15506" />
        <path
           d="M -1.2866832,-3.9585227 L 3.0617053,0"
           style="fill:none;fill-rule:evenodd;stroke:black;stroke-width:0.80000001;stroke-linecap:round;marker-start:none;marker-end:none"
           id="path15508" />
        <path
           d="M 1.3053582,-3.9585227 L 5.6537466,0"
           style="fill:none;fill-rule:evenodd;stroke:black;stroke-width:0.80000001;stroke-linecap:round;marker-start:none;marker-end:none"
           id="path15510" />
        <path
           d="M -3.8048674,4.1775838 L 0.54352094,0.21974226"
           style="fill:none;fill-rule:evenodd;stroke:black;stroke-width:0.80000001;stroke-linecap:round;marker-start:none;marker-end:none"
           id="path15512" />
        <path
           d="M -1.2866832,4.1775838 L 3.0617053,0.21974226"
           style="fill:none;fill-rule:evenodd;stroke:black;stroke-width:0.80000001;stroke-linecap:round;marker-start:none;marker-end:none"
           id="path15514" />
        <path
           d="M 1.3053582,4.1775838 L 5.6537466,0.21974226"
           style="fill:none;fill-rule:evenodd;stroke:black;stroke-width:0.80000001;stroke-linecap:round;marker-start:none;marker-end:none"
           id="path15516" />
      </g>
    </marker>
    <marker
       refX="0"
       refY="0"
       orient="auto"
       style="overflow:visible"
       id="Arrow1Lend">
      <path
         d="M 0,0 L 5,-5 L -12.5,0 L 5,5 L 0,0 z "
         transform="matrix(-0.8,0,0,-0.8,-10,0)"
         style="fill-rule:evenodd;stroke:black;stroke-width:1pt;marker-start:none"
         id="path15549" />
    </marker>
    <marker
       refX="0"
       refY="0"
       orient="auto"
       style="overflow:visible"
       id="Arrow1Lstart">
      <path
         d="M 0,0 L 5,-5 L -12.5,0 L 5,5 L 0,0 z "
         transform="matrix(0.8,0,0,0.8,10,0)"
         style="fill-rule:evenodd;stroke:black;stroke-width:1pt;marker-start:none"
         id="path15552" />
    </marker>
    <linearGradient
       id="linearGradient13591">
      <stop
         style="stop-color:white;stop-opacity:1"
         offset="0"
         id="stop13593" />
      <stop
         style="stop-color:white;stop-opacity:0.5"
         offset="0.37037036"
         id="stop13595" />
      <stop
         style="stop-color:white;stop-opacity:0"
         offset="1"
         id="stop13597" />
    </linearGradient>
    <linearGradient
       id="linearGradient6338">
      <stop
         style="stop-color:white;stop-opacity:1"
         offset="0"
         id="stop6342" />
      <stop
         style="stop-color:white;stop-opacity:0.5"
         offset="0.37037036"
         id="stop7317" />
      <stop
         style="stop-color:white;stop-opacity:0"
         offset="1"
         id="stop6340" />
    </linearGradient>
    <pattern
       xlink:href="#pattern2786"
       id="pattern4564"
       patternTransform="translate(535.5,103.4055)" />
    <pattern
       patternUnits="userSpaceOnUse"
       width="78"
       height="72"
       patternTransform="translate(550,122)"
       id="pattern2786">
      <g
         id="g4546">
        <rect
           style="fill:black;fill-opacity:1;fill-rule:evenodd;stroke:none;stroke-width:1px;stroke-linecap:butt;stroke-linejoin:miter;stroke-opacity:1"
           id="rect2772"
           width="38"
           height="35"
           x="-85"
           y="69.594482" />
        <rect
           style="fill:white;fill-opacity:0.38888891;fill-rule:evenodd;stroke:none;stroke-width:1px;stroke-linecap:butt;stroke-linejoin:miter;stroke-opacity:1"
           id="rect2774"
           width="38"
           height="35"
           x="-46.5"
           y="70.094482" />
        <rect
           style="fill:white;fill-opacity:0.38888891;fill-rule:evenodd;stroke:none;stroke-width:1px;stroke-linecap:butt;stroke-linejoin:miter;stroke-opacity:1"
           id="rect2776"
           width="38"
           height="35"
           x="-85"
           y="105.59448" />
        <rect
           style="fill:black;fill-opacity:1;fill-rule:evenodd;stroke:none;stroke-width:1px;stroke-linecap:butt;stroke-linejoin:miter;stroke-opacity:1"
           id="rect2778"
           width="38"
           height="35"
           x="-46"
           y="105.09448" />
      </g>
    </pattern>
    <linearGradient
       x1="29.5"
       y1="167.09448"
       x2="272.5"
       y2="167.09448"
       id="linearGradient8204"
       xlink:href="#linearGradient6338"
       gradientUnits="userSpaceOnUse"
       spreadMethod="reflect" />
    <linearGradient
       x1="269"
       y1="29.594481"
       x2="272.5"
       y2="167.09448"
       id="linearGradient12704"
       xlink:href="#linearGradient13591"
       gradientUnits="userSpaceOnUse"
       gradientTransform="translate(-14.5,-18.59448)"
       spreadMethod="reflect" />
    <linearGradient
       x1="29.5"
       y1="167.09448"
       x2="272.5"
       y2="167.09448"
       id="linearGradient1985"
       xlink:href="#linearGradient6338"
       gradientUnits="userSpaceOnUse"
       gradientTransform="translate(-14.5,-18.59448)"
       spreadMethod="reflect" />
  </defs>
  <g
     id="layer2">
    <rect
       width="491"
       height="274"
       x="12.5"
       y="11.5"
       style="fill:url(#pattern4564);fill-opacity:1;fill-rule:evenodd;stroke:none;stroke-width:1;stroke-linecap:butt;stroke-linejoin:miter;stroke-miterlimit:4;stroke-dasharray:8, 8;stroke-dashoffset:0;stroke-opacity:1"
       id="rect4562" />
  </g>
  <g
     id="layer3">
    <rect
       width="491"
       height="274"
       x="12.5"
       y="11.5"
       style="fill:url(#linearGradient12704);fill-opacity:1;fill-rule:evenodd;stroke:black;stroke-width:1;stroke-linecap:butt;stroke-linejoin:miter;stroke-miterlimit:4;stroke-dasharray:8, 8;stroke-dashoffset:0;stroke-opacity:1"
       id="rect12702" />
  </g>
  <path
     d="M 12.5,11.500002 L 503.5,11.500002 L 503.5,285.5 L 12.5,285.5 L 12.5,11.500002 z "
     style="fill:url(#linearGradient1985);fill-opacity:1;fill-rule:evenodd;stroke:black;stroke-width:1;stroke-linecap:butt;stroke-linejoin:miter;stroke-miterlimit:4;stroke-dasharray:8, 8;stroke-dashoffset:0;stroke-opacity:1"
     id="rect1876" />
  <path
     d="M 30,31.999999 L 481,31.999999 L 481,266.5 L 30,266.5 L 30,31.999999 z "
     style="fill:#ffffff;fill-opacity:1;fill-rule:evenodd;stroke:#000000;stroke-width:1px;stroke-linecap:butt;stroke-linejoin:miter;stroke-opacity:1"
     id="rect20210" />
  <path
     d="M 48.352348,49.500002 L 459.35235,49.500002 L 459.35235,247.5 L 48.352348,247.5 L 48.352348,49.500002 z "
     style="fill:none;fill-opacity:0.99494952000000003;fill-rule:evenodd;stroke:#d0d0d0;stroke-width:16.29921341000000012;stroke-linecap:butt;stroke-linejoin:miter;stroke-miterlimit:4;stroke-opacity:1"
     id="rect1872" />
  <path
     d="M 91.42618,99 L 420.42618,99 L 420.42618,198 L 91.42618,198 L 91.42618,99 z "
     style="fill:#ffffff;fill-opacity:1;fill-rule:evenodd;stroke:#000000;stroke-width:0.99921262000000000;stroke-linecap:butt;stroke-linejoin:miter;stroke-miterlimit:4;stroke-opacity:1"
     id="rect1874" />
  <path
     d="M 213.90625,146.97266 L 216.55859,147.64258 C 216.00259,149.82097 215.00226,151.4821 213.55762,152.62598 C 212.11294,153.76986 210.34699,154.3418 208.25977,154.3418 C 206.0996,154.3418 204.34277,153.90202 202.98926,153.02246 C 201.63574,152.14291 200.60579,150.86915 199.89941,149.20117 C 199.19303,147.53321 198.83984,145.7422 198.83984,143.82813 C 198.83984,141.7409 199.2386,139.92026 200.03613,138.36621 C 200.83366,136.81219 201.96842,135.63186 203.44043,134.8252 C 204.91243,134.01858 206.53254,133.61526 208.30078,133.61524 C 210.30598,133.61526 211.99217,134.12567 213.35938,135.14649 C 214.72655,136.16734 215.67902,137.60288 216.2168,139.45313 L 213.60547,140.06836 C 213.14061,138.61004 212.46613,137.5482 211.58203,136.88281 C 210.6979,136.21747 209.58593,135.88479 208.24609,135.88477 C 206.70572,135.88479 205.41829,136.25393 204.38379,136.99219 C 203.34928,137.73049 202.62239,138.7217 202.20313,139.96582 C 201.78385,141.20998 201.57421,142.49285 201.57422,143.81446 C 201.57421,145.51889 201.82259,147.00685 202.31934,148.27832 C 202.81608,149.54981 203.58854,150.50001 204.63672,151.12891 C 205.68489,151.75782 206.81965,152.07227 208.04102,152.07227 C 209.52668,152.07227 210.78449,151.64388 211.81445,150.78711 C 212.84439,149.93035 213.54165,148.65886 213.90625,146.97266 L 213.90625,146.97266 z M 218.60938,146.74024 C 218.60937,144.05144 219.35677,142.05991 220.85156,140.76563 C 222.10026,139.69012 223.62239,139.15236 225.41797,139.15235 C 227.41405,139.15236 229.04556,139.80633 230.3125,141.11426 C 231.57941,142.42221 232.21288,144.22918 232.21289,146.53516 C 232.21288,148.40365 231.9326,149.87338 231.37207,150.94434 C 230.81151,152.0153 229.99576,152.84701 228.9248,153.43946 C 227.85383,154.0319 226.68489,154.32813 225.41797,154.32813 C 223.38541,154.32813 221.74251,153.67644 220.48926,152.37305 C 219.236,151.06967 218.60937,149.19206 218.60938,146.74024 L 218.60938,146.74024 z M 221.13867,146.74024 C 221.13867,148.59962 221.54427,149.99187 222.35547,150.91699 C 223.16666,151.84213 224.18749,152.30469 225.41797,152.30469 C 226.63931,152.30469 227.65559,151.83985 228.4668,150.91016 C 229.27798,149.98048 229.68358,148.56316 229.68359,146.65821 C 229.68358,144.86264 229.2757,143.50229 228.45996,142.57715 C 227.6442,141.65203 226.6302,141.18947 225.41797,141.18946 C 224.18749,141.18947 223.16666,141.64975 222.35547,142.57031 C 221.54427,143.4909 221.13867,144.88087 221.13867,146.74024 L 221.13867,146.74024 z M 235.11133,154 L 235.11133,139.48047 L 237.32617,139.48047 L 237.32617,141.54492 C 238.39257,139.94989 239.93294,139.15236 241.94727,139.15235 C 242.82226,139.15236 243.62662,139.30959 244.36035,139.62403 C 245.09406,139.93849 245.64322,140.35093 246.00781,140.86133 C 246.37238,141.37176 246.62759,141.97788 246.77344,142.67969 C 246.86457,143.13543 246.91014,143.93296 246.91016,145.07227 L 246.91016,154 L 244.44922,154 L 244.44922,145.16797 C 244.44921,144.16538 244.3535,143.4157 244.16211,142.91895 C 243.97069,142.42221 243.63117,142.02573 243.14355,141.72949 C 242.65592,141.43328 242.08398,141.28517 241.42773,141.28516 C 240.37955,141.28517 239.47493,141.61785 238.71387,142.28321 C 237.95279,142.94858 237.57226,144.21095 237.57227,146.07031 L 237.57227,154 L 235.11133,154 z M 256.07031,151.79883 L 256.42578,153.97266 C 255.73307,154.11849 255.11327,154.19141 254.56641,154.19141 C 253.67317,154.19141 252.98046,154.05013 252.48828,153.76758 C 251.99609,153.48503 251.64974,153.11361 251.44922,152.65332 C 251.2487,152.19304 251.14844,151.22461 251.14844,149.74805 L 251.14844,141.39453 L 249.34375,141.39453 L 249.34375,139.48047 L 251.14844,139.48047 L 251.14844,135.88477 L 253.5957,134.40821 L 253.5957,139.48047 L 256.07031,139.48047 L 256.07031,141.39453 L 253.5957,141.39453 L 253.5957,149.88477 C 253.5957,150.58659 253.63899,151.03777 253.72559,151.23828 C 253.81217,151.43881 253.95345,151.59831 254.14941,151.7168 C 254.34537,151.83529 254.62565,151.89454 254.99023,151.89453 C 255.26367,151.89454 255.62369,151.86263 256.07031,151.79883 L 256.07031,151.79883 z M 268.40234,149.32422 L 270.94531,149.63867 C 270.54426,151.12435 269.80142,152.27735 268.7168,153.09766 C 267.63215,153.91797 266.24674,154.32813 264.56055,154.32813 C 262.43684,154.32813 260.75293,153.67416 259.50879,152.36621 C 258.26465,151.05827 257.64258,149.22397 257.64258,146.86328 C 257.64258,144.42058 258.27148,142.52475 259.5293,141.17578 C 260.78711,139.82684 262.41861,139.15236 264.42383,139.15235 C 266.36522,139.15236 267.95116,139.81317 269.18164,141.13477 C 270.4121,142.45639 271.02733,144.31577 271.02734,146.71289 C 271.02733,146.85873 271.02277,147.07748 271.01367,147.36914 L 260.18555,147.36914 C 260.27669,148.9642 260.72786,150.18555 261.53906,151.03321 C 262.35025,151.88086 263.36197,152.30469 264.57422,152.30469 C 265.47655,152.30469 266.24674,152.06771 266.88477,151.59375 C 267.52278,151.1198 268.02863,150.36329 268.40234,149.32422 L 268.40234,149.32422 z M 260.32227,145.34571 L 268.42969,145.34571 C 268.3203,144.12436 268.01041,143.20835 267.5,142.59766 C 266.71614,141.64975 265.69986,141.1758 264.45117,141.17578 C 263.32096,141.1758 262.37076,141.55405 261.60059,142.31055 C 260.8304,143.06707 260.40429,144.07879 260.32227,145.34571 L 260.32227,145.34571 z M 274.04883,154 L 274.04883,139.48047 L 276.26367,139.48047 L 276.26367,141.54492 C 277.33007,139.94989 278.87044,139.15236 280.88477,139.15235 C 281.75976,139.15236 282.56412,139.30959 283.29785,139.62403 C 284.03156,139.93849 284.58072,140.35093 284.94531,140.86133 C 285.30988,141.37176 285.56509,141.97788 285.71094,142.67969 C 285.80207,143.13543 285.84764,143.93296 285.84766,145.07227 L 285.84766,154 L 283.38672,154 L 283.38672,145.16797 C 283.38671,144.16538 283.291,143.4157 283.09961,142.91895 C 282.90819,142.42221 282.56867,142.02573 282.08105,141.72949 C 281.59342,141.43328 281.02148,141.28517 280.36523,141.28516 C 279.31705,141.28517 278.41243,141.61785 277.65137,142.28321 C 276.89029,142.94858 276.50976,144.21095 276.50977,146.07031 L 276.50977,154 L 274.04883,154 z M 295.00781,151.79883 L 295.36328,153.97266 C 294.67057,154.11849 294.05077,154.19141 293.50391,154.19141 C 292.61067,154.19141 291.91796,154.05013 291.42578,153.76758 C 290.93359,153.48503 290.58724,153.11361 290.38672,152.65332 C 290.1862,152.19304 290.08594,151.22461 290.08594,149.74805 L 290.08594,141.39453 L 288.28125,141.39453 L 288.28125,139.48047 L 290.08594,139.48047 L 290.08594,135.88477 L 292.5332,134.40821 L 292.5332,139.48047 L 295.00781,139.48047 L 295.00781,141.39453 L 292.5332,141.39453 L 292.5332,149.88477 C 292.5332,150.58659 292.57649,151.03777 292.66309,151.23828 C 292.74967,151.43881 292.89095,151.59831 293.08691,151.7168 C 293.28287,151.83529 293.56315,151.89454 293.92773,151.89453 C 294.20117,151.89454 294.56119,151.86263 295.00781,151.79883 L 295.00781,151.79883 z "
     style="font-size:18px;font-style:italic;font-weight:normal;text-align:center;text-anchor:middle;fill:black;fill-opacity:1;stroke:none;stroke-width:1px;stroke-linecap:butt;stroke-linejoin:miter;stroke-opacity:1;font-family:Comic Sans MS"
     id="text2764" />
  <path
     d="m 214.77734,30.021483 0,-14.316406 2.85157,0 3.38867,10.136718 c 0.31249,0.944014 0.54035,1.650394 0.68359,2.119141 0.16275,-0.520831 0.41666,-1.285804 0.76172,-2.294922 l 3.42774,-9.960937 2.54882,0 0,14.316406 -1.82617,0 0,-11.982422 -4.16015,11.982422 -1.70899,0 -4.14062,-12.1875 0,12.1875 -1.82618,0 z m 23.28125,-1.279297 c -0.65105,0.553386 -1.27767,0.944011 -1.87988,1.171875 -0.60222,0.227865 -1.24838,0.341797 -1.93848,0.341797 -1.13932,0 -2.01497,-0.27832 -2.62695,-0.834961 -0.61198,-0.556639 -0.91797,-1.267902 -0.91797,-2.133789 0,-0.507809 0.11556,-0.971676 0.34668,-1.391602 0.23112,-0.419917 0.53385,-0.756831 0.90821,-1.010742 0.37434,-0.253901 0.79589,-0.445958 1.26464,-0.576172 0.34505,-0.09114 0.86589,-0.17903 1.5625,-0.263672 1.41927,-0.169264 2.46419,-0.371087 3.13477,-0.605468 0.006,-0.240879 0.01,-0.393874 0.01,-0.458985 -1e-5,-0.716138 -0.16603,-1.220695 -0.49805,-1.513672 -0.44923,-0.397126 -1.11654,-0.595693 -2.00195,-0.595703 -0.82683,10e-6 -1.43718,0.144866 -1.83106,0.434571 -0.39388,0.289722 -0.68522,0.802416 -0.87402,1.538086 l -1.71875,-0.234375 c 0.15625,-0.735669 0.41341,-1.329744 0.77148,-1.782227 0.35807,-0.452464 0.87565,-0.800771 1.55274,-1.044922 0.67707,-0.24413 1.46158,-0.3662 2.35351,-0.366211 0.88541,1.1e-5 1.60481,0.104177 2.1582,0.3125 0.55338,0.208344 0.96028,0.470388 1.22071,0.786133 0.2604,0.315764 0.4427,0.714527 0.54687,1.196289 0.0586,0.299487 0.0879,0.839851 0.0879,1.621094 l 0,2.34375 c -1e-5,1.634117 0.0374,2.667645 0.11231,3.100586 0.0749,0.432943 0.22297,0.847982 0.44433,1.245117 l -1.83593,0 c -0.1823,-0.364583 -0.29949,-0.791015 -0.35157,-1.279297 l 0,0 z m -0.14648,-3.925781 c -0.63803,0.260421 -1.59506,0.481775 -2.87109,0.664062 -0.72266,0.104171 -1.23373,0.221359 -1.53321,0.351563 -0.29948,0.130212 -0.5306,0.320642 -0.69336,0.571289 -0.16276,0.250654 -0.24414,0.528974 -0.24414,0.834961 0,0.468752 0.17741,0.859377 0.53223,1.171875 0.35481,0.312501 0.87402,0.468751 1.55762,0.46875 0.67707,1e-6 1.27929,-0.148111 1.80664,-0.444336 0.52733,-0.296222 0.9147,-0.701495 1.16211,-1.21582 0.18879,-0.397133 0.28319,-0.98307 0.2832,-1.757813 l 0,-0.644531 z m 4.49219,5.205078 0,-10.371094 1.58203,0 0,1.572266 c 0.40364,-0.735668 0.77636,-1.220693 1.11816,-1.455078 0.34179,-0.234365 0.71777,-0.351552 1.12793,-0.351563 0.59244,1.1e-5 1.19466,0.188813 1.80664,0.566406 l -0.60547,1.63086 c -0.42969,-0.253898 -0.85938,-0.380851 -1.28906,-0.38086 -0.38412,9e-6 -0.72917,0.115569 -1.03515,0.34668 -0.306,0.231128 -0.5241,0.551766 -0.6543,0.961914 -0.19532,0.625007 -0.29297,1.3086 -0.29297,2.050781 l 0,5.429688 -1.75781,0 z m 6.37695,0.859375 1.70898,0.253906 c 0.0716,0.527342 0.27018,0.911457 0.59571,1.152344 0.43619,0.325518 1.03189,0.488278 1.78711,0.488281 0.81379,-3e-6 1.44205,-0.162763 1.88476,-0.488281 0.4427,-0.325523 0.74218,-0.781252 0.89844,-1.367188 0.0911,-0.358073 0.13346,-1.110025 0.12695,-2.255859 -0.76823,0.904948 -1.72526,1.357422 -2.87109,1.357422 -1.42579,0 -2.5293,-0.514322 -3.31055,-1.542969 -0.78125,-1.028643 -1.17187,-2.262366 -1.17187,-3.701172 0,-0.989577 0.17903,-1.902662 0.53711,-2.739257 0.35807,-0.83658 0.87727,-1.482738 1.55761,-1.938477 0.68034,-0.455719 1.47949,-0.683583 2.39747,-0.683594 1.22395,1.1e-5 2.23306,0.494802 3.02734,1.484375 l 0,-1.25 1.62109,0 0,8.964844 c -1e-5,1.614583 -0.1644,2.758788 -0.49316,3.432617 -0.32879,0.673826 -0.84962,1.206052 -1.5625,1.59668 -0.7129,0.390621 -1.59018,0.585933 -2.63184,0.585937 -1.23698,-4e-6 -2.23633,-0.278324 -2.99804,-0.834961 -0.76172,-0.556643 -1.12956,-1.394858 -1.10352,-2.514648 l 0,0 z m 1.45508,-6.230469 c 0,1.360681 0.27018,2.353519 0.81055,2.978516 0.54036,0.625002 1.21744,0.937501 2.03125,0.9375 0.80728,1e-6 1.48436,-0.310871 2.03125,-0.932617 0.54686,-0.621742 0.8203,-1.596676 0.82031,-2.924805 -1e-5,-1.269525 -0.28159,-2.226555 -0.84473,-2.871094 -0.56316,-0.644522 -1.24187,-0.966787 -2.03613,-0.966797 -0.78126,10e-6 -1.44532,0.317392 -1.99219,0.952149 -0.54688,0.634773 -0.82031,1.577155 -0.82031,2.827148 l 0,0 z m 10.00976,-6.923828 0,-2.021484 1.75782,0 0,2.021484 -1.75782,0 z m 0,12.294922 0,-10.371094 1.75782,0 0,10.371094 -1.75782,0 z m 4.44336,0 0,-10.371094 1.58203,0 0,1.47461 c 0.76172,-1.139313 1.86198,-1.708974 3.30079,-1.708985 0.62499,1.1e-5 1.19953,0.112315 1.72363,0.336914 0.52408,0.22462 0.91633,0.519216 1.17676,0.883789 0.2604,0.364593 0.4427,0.797535 0.54687,1.298828 0.0651,0.325529 0.0977,0.89519 0.0977,1.708985 l 0,6.376953 -1.75781,0 0,-6.308594 c -10e-6,-0.716139 -0.0684,-1.25162 -0.20508,-1.606445 -0.13673,-0.35481 -0.37924,-0.638012 -0.72754,-0.849609 -0.34832,-0.21158 -0.75684,-0.317374 -1.22559,-0.317383 -0.7487,9e-6 -1.39486,0.237639 -1.93847,0.71289 -0.54363,0.475269 -0.81544,1.37696 -0.81543,2.705078 l 0,5.664063 -1.75782,0 z"
     style="font-size:18px;font-style:italic;font-weight:normal;text-align:center;text-anchor:middle;fill:#000000;fill-opacity:1;stroke:none;font-family:Comic Sans MS"
     id="text2768" />
  <path
     d="M 235.46094,222.55371 L 232.9917,213.24805 L 234.25488,213.24805 L 235.67041,219.34815 C 235.82275,219.98715 235.95394,220.62191 236.06396,221.25244 C 236.30094,220.25798 236.44059,219.68458 236.48291,219.53223 L 238.25391,213.24805 L 239.73926,213.24805 L 241.07227,217.95801 C 241.40657,219.12598 241.64778,220.22413 241.7959,221.25244 C 241.91438,220.66423 242.06884,219.98926 242.25928,219.22754 L 243.71924,213.24805 L 244.95703,213.24805 L 242.40527,222.55371 L 241.21826,222.55371 L 239.25684,215.46338 C 239.09179,214.87094 238.99446,214.50701 238.96484,214.37158 C 238.86751,214.799 238.77652,215.16293 238.69189,215.46338 L 236.71777,222.55371 L 235.46094,222.55371 z M 245.95996,214.56201 L 245.95996,213.24805 L 247.10254,213.24805 L 247.10254,214.56201 L 245.95996,214.56201 z M 245.95996,222.55371 L 245.95996,215.8125 L 247.10254,215.8125 L 247.10254,222.55371 L 245.95996,222.55371 z M 253.22168,222.55371 L 253.22168,221.70313 C 252.79427,222.37175 252.16585,222.70606 251.33643,222.70606 C 250.79899,222.70606 250.30493,222.55795 249.85425,222.26172 C 249.40356,221.9655 249.05444,221.55184 248.80688,221.02075 C 248.55933,220.48967 248.43555,219.87924 248.43555,219.18946 C 248.43555,218.51661 248.54769,217.90618 248.77197,217.35816 C 248.99626,216.81015 249.33268,216.39015 249.78125,216.09815 C 250.22982,215.80616 250.73128,215.66017 251.28564,215.66016 C 251.69189,215.66017 252.05371,215.74586 252.37109,215.91724 C 252.68847,216.08863 252.94661,216.31186 253.14551,216.58692 L 253.14551,213.24805 L 254.28174,213.24805 L 254.28174,222.55371 L 253.22168,222.55371 z M 249.60986,219.18946 C 249.60986,220.05274 249.79183,220.69808 250.15576,221.12549 C 250.51969,221.5529 250.94922,221.7666 251.44434,221.7666 C 251.94368,221.7666 252.36792,221.56242 252.71704,221.15406 C 253.06616,220.74569 253.24072,220.12256 253.24072,219.28467 C 253.24072,218.36215 253.06298,217.68507 252.70752,217.25342 C 252.35205,216.82179 251.91406,216.60597 251.39355,216.60596 C 250.88574,216.60597 250.4615,216.81332 250.12085,217.22803 C 249.78019,217.64275 249.60986,218.29656 249.60986,219.18946 L 249.60986,219.18946 z M 258.5791,221.53174 L 258.74414,222.54102 C 258.42252,222.60873 258.13476,222.64258 257.88086,222.64258 C 257.46614,222.64258 257.14453,222.57699 256.91602,222.4458 C 256.6875,222.31462 256.52669,222.14217 256.43359,221.92847 C 256.34049,221.71477 256.29394,221.26514 256.29395,220.57959 L 256.29395,216.70117 L 255.45605,216.70117 L 255.45605,215.8125 L 256.29395,215.8125 L 256.29395,214.14307 L 257.43018,213.45752 L 257.43018,215.8125 L 258.5791,215.8125 L 258.5791,216.70117 L 257.43018,216.70117 L 257.43018,220.64307 C 257.43017,220.96892 257.45027,221.17839 257.49048,221.27149 C 257.53068,221.36459 257.59627,221.43864 257.68726,221.49365 C 257.77824,221.54867 257.90836,221.57618 258.07764,221.57617 C 258.20459,221.57618 258.37174,221.56136 258.5791,221.53174 L 258.5791,221.53174 z M 259.68994,222.55371 L 259.68994,213.24805 L 260.83252,213.24805 L 260.83252,216.58692 C 261.36572,215.96908 262.03857,215.66017 262.85107,215.66016 C 263.35042,215.66017 263.78417,215.75855 264.15234,215.95532 C 264.5205,216.15211 264.78393,216.424 264.94263,216.771 C 265.10131,217.11801 265.18066,217.62159 265.18066,218.28174 L 265.18066,222.55371 L 264.03809,222.55371 L 264.03809,218.28174 C 264.03808,217.71046 263.9143,217.29469 263.66675,217.03443 C 263.41918,216.77418 263.06901,216.64405 262.61621,216.64405 C 262.27767,216.64405 261.95923,216.73186 261.66089,216.90747 C 261.36255,217.0831 261.1499,217.32113 261.02295,217.62158 C 260.89599,217.92204 260.83252,218.33676 260.83252,218.86573 L 260.83252,222.55371 L 259.68994,222.55371 z "
     style="font-size:13px;font-style:italic;font-weight:normal;text-align:center;text-anchor:middle;fill:#280b0b;fill-opacity:1;stroke:none;stroke-width:1px;stroke-linecap:butt;stroke-linejoin:miter;stroke-opacity:1;font-family:Comic Sans MS"
     id="text14484" />
  <g
     transform="matrix(1.040945,0,0,1,-23.46299,-106.5945)"
     id="g15569">
    <path
       d="M 110,341.67522 L 110,301.15147"
       style="fill:none;fill-rule:evenodd;stroke:black;stroke-width:0.98013586px;stroke-linecap:butt;stroke-linejoin:miter;stroke-opacity:1"
       id="path14488" />
    <path
       d="M 426,301.96194 L 426,346.53807"
       style="fill:none;fill-rule:evenodd;stroke:black;stroke-width:0.98013586px;stroke-linecap:butt;stroke-linejoin:miter;stroke-opacity:1"
       id="path14490" />
    <path
       d="M 109.5,331.59448 L 425.5,332.59448"
       style="fill:none;fill-rule:evenodd;stroke:black;stroke-width:0.98013556;stroke-linecap:butt;stroke-linejoin:miter;marker-start:url(#Arrow1Lstart);marker-mid:none;marker-end:url(#Arrow1Lend);stroke-miterlimit:4;stroke-dasharray:0.98013553, 0.98013553;stroke-dashoffset:0;stroke-opacity:1"
       id="path14492" />
  </g>
  <g
     transform="matrix(0,0.313833,-1,0,405.8448,63.97114)"
     id="g15574">
    <path
       d="M 110,341.67522 L 110,301.15147"
       style="fill:none;fill-rule:evenodd;stroke:black;stroke-width:1.7850517px;stroke-linecap:butt;stroke-linejoin:miter;stroke-opacity:1"
       id="path15576" />
    <path
       d="M 426,301.96194 L 426,346.53807"
       style="fill:none;fill-rule:evenodd;stroke:black;stroke-width:1.7850517px;stroke-linecap:butt;stroke-linejoin:miter;stroke-opacity:1"
       id="path15578" />
    <path
       d="M 109.5,331.59448 L 425.5,332.59448"
       style="fill:none;fill-rule:evenodd;stroke:black;stroke-width:1.78505111;stroke-linecap:butt;stroke-linejoin:miter;marker-start:url(#Arrow1Lstart);marker-mid:none;marker-end:url(#Arrow1Lend);stroke-miterlimit:4;stroke-dasharray:1.78505112, 1.78505112;stroke-dashoffset:0;stroke-opacity:1"
       id="path15580" />
  </g>
  <path
     d="M 78.011369,129.08126 L 87.316909,129.12834 L 87.310679,130.35978 L 83.489441,130.34044 L 83.464971,135.17729 L 87.286208,135.19662 L 87.279978,136.42805 L 77.974438,136.38097 L 77.980668,135.14954 L 82.36684,135.17174 L 82.391311,130.33489 L 78.005139,130.3127 L 78.011369,129.08126 z M 80.112296,142.91726 L 79.960328,144.09717 C 79.271499,143.90748 78.737933,143.55988 78.359627,143.05439 C 77.98132,142.54888 77.794147,141.9047 77.798108,141.12184 C 77.803096,140.13585 78.110677,139.35558 78.720851,138.78102 C 79.331022,138.20646 80.184115,137.92196 81.280132,137.9275 C 82.414227,137.93324 83.292945,138.22968 83.91629,138.81682 C 84.539623,139.40397 84.848942,140.16303 84.844232,141.09401 C 84.839672,141.99536 84.529143,142.73012 83.912661,143.29831 C 83.296166,143.86648 82.431453,144.14776 81.318516,144.14212 C 81.250805,144.14178 81.149255,144.13915 81.013865,144.13423 L 81.039299,139.10696 C 80.298531,139.14553 79.730423,139.35213 79.33497,139.72676 C 78.939514,140.10139 78.740363,140.57012 78.737516,141.13294 C 78.735396,141.55187 78.843611,141.91001 79.062163,142.20735 C 79.280712,142.50467 79.630756,142.74131 80.112296,142.91726 L 80.112296,142.91726 z M 81.978418,139.17519 L 81.959374,142.9393 C 82.526677,142.89138 82.952692,142.74965 83.23742,142.51412 C 83.679354,142.15241 83.90179,141.68169 83.904729,141.10195 C 83.907378,140.57722 83.733994,140.13517 83.384577,139.77581 C 83.035148,139.41646 82.566429,139.21625 81.978418,139.17519 L 81.978418,139.17519 z M 85.919728,145.5746 L 87.233671,145.58125 L 87.22789,146.72381 L 85.913948,146.71717 L 85.919728,145.5746 z M 77.928131,145.53417 L 84.669252,145.56827 L 84.663472,146.71084 L 77.92235,146.67673 L 77.928131,145.53417 z M 77.355992,148.21002 L 77.185336,149.32001 C 76.842332,149.36482 76.592009,149.49263 76.434363,149.70343 C 76.221345,149.98588 76.113593,150.37254 76.111108,150.86342 C 76.108434,151.39239 76.21216,151.80128 76.422289,152.09011 C 76.63242,152.37893 76.927655,152.57509 77.307995,152.67858 C 77.540439,152.739 78.029062,152.76898 78.773866,152.76852 C 78.188184,152.2662 77.897227,151.64265 77.900995,150.89787 C 77.905684,149.97112 78.243617,149.25554 78.914797,148.75112 C 79.585976,148.24669 80.38917,147.99685 81.324382,148.00158 C 81.967598,148.00484 82.560507,148.12421 83.103109,148.35971 C 83.645702,148.59519 84.063991,148.9348 84.35798,149.37852 C 84.651953,149.82223 84.797443,150.34242 84.794424,150.9391 C 84.790399,151.73465 84.465466,152.38894 83.819641,152.90196 L 84.632129,152.90607 L 84.626798,153.95977 L 78.799727,153.93028 C 77.750262,153.92498 77.00708,153.81435 76.570178,153.59845 C 76.133278,153.38253 75.789048,153.04223 75.537487,152.57758 C 75.285931,152.11293 75.161864,151.54206 75.165288,150.86499 C 75.169358,150.06096 75.35355,149.4123 75.717864,148.91903 C 76.082182,148.42575 76.628224,148.18941 77.355992,148.21002 L 77.355992,148.21002 z M 81.400959,149.17629 C 80.516528,149.17182 79.870303,149.34417 79.462283,149.69335 C 79.054261,150.04252 78.848913,150.4816 78.846238,151.01056 C 78.843582,151.5353 79.043419,151.97641 79.445751,152.33392 C 79.84808,152.69143 80.480879,152.87237 81.344151,152.87674 C 82.169331,152.88091 82.792319,152.70104 83.213116,152.33711 C 83.633901,151.97319 83.845603,151.53309 83.848221,151.01683 C 83.850784,150.50902 83.646672,150.07634 83.235883,149.71879 C 82.825085,149.36124 82.213444,149.18041 81.400959,149.17629 L 81.400959,149.17629 z M 77.87691,155.65855 L 87.18245,155.70563 L 87.17667,156.84819 L 83.837848,156.8313 C 84.452973,157.36762 84.758489,158.04202 84.754379,158.85451 C 84.751853,159.35386 84.65127,159.7871 84.452636,160.15427 C 84.253992,160.52143 83.980772,160.78348 83.632975,160.94043 C 83.285166,161.09735 82.781191,161.17415 82.121048,161.17081 L 77.849132,161.1492 L 77.854912,160.00663 L 82.126829,160.02824 C 82.698105,160.03113 83.114497,159.90946 83.376005,159.66323 C 83.637502,159.41698 83.769399,159.06747 83.771696,158.61468 C 83.773403,158.27614 83.687206,157.95725 83.513104,157.65804 C 83.338992,157.35881 83.102034,157.14496 82.80223,157.01649 C 82.502415,156.88801 82.088029,156.82245 81.559069,156.81977 L 77.87113,156.80111 L 77.87691,155.65855 z M 78.849639,165.39455 L 77.83954,165.55447 C 77.77346,165.23253 77.741062,164.9446 77.742347,164.69069 C 77.744445,164.27599 77.811663,163.9547 77.944002,163.72686 C 78.076342,163.49901 78.249597,163.33908 78.46377,163.24706 C 78.677943,163.15505 79.127797,163.11077 79.813336,163.11424 L 83.691703,163.13386 L 83.695942,162.29598 L 84.584601,162.30048 L 84.580362,163.13836 L 86.249773,163.1468 L 86.929565,164.28649 L 84.574614,164.27457 L 84.568802,165.42349 L 83.680142,165.41899 L 83.685955,164.27008 L 79.744112,164.25013 C 79.418268,164.24848 79.208697,164.26752 79.115397,164.30725 C 79.022095,164.34698 78.947708,164.4122 78.892236,164.50291 C 78.836763,164.59361 78.808599,164.7236 78.807743,164.89286 C 78.8071,165.01981 78.821065,165.18704 78.849639,165.39455 L 78.849639,165.39455 z "
     style="font-size:12.99999714px;font-style:italic;font-weight:normal;text-align:center;text-anchor:middle;fill:#280b0b;fill-opacity:1;stroke:none;stroke-width:1px;stroke-linecap:butt;stroke-linejoin:miter;stroke-opacity:1;font-family:Comic Sans MS"
     id="text15582" />
  <path
     d="M 207.25586,81.053713 L 207.25586,66.737307 L 212.65625,66.737307 C 213.60676,66.737321 214.33267,66.782894 214.83398,66.874026 C 215.5371,66.991227 216.12629,67.214209 216.60156,67.542971 C 217.07681,67.87176 217.4593,68.332372 217.74902,68.924807 C 218.03872,69.517267 218.18358,70.168308 218.18359,70.877932 C 218.18358,72.095389 217.79621,73.125661 217.02148,73.968752 C 216.24673,74.811858 214.847,75.233407 212.82227,75.233401 L 209.15039,75.233401 L 209.15039,81.053713 L 207.25586,81.053713 z M 209.15039,73.543948 L 212.85156,73.543948 C 214.07551,73.543955 214.94465,73.316091 215.45898,72.860354 C 215.9733,72.404633 216.23046,71.763358 216.23047,70.936526 C 216.23046,70.337578 216.07909,69.824883 215.77637,69.39844 C 215.47362,68.97202 215.07486,68.690444 214.58008,68.553713 C 214.26106,68.469091 213.67187,68.426773 212.8125,68.42676 L 209.15039,68.42676 L 209.15039,73.543948 z M 227.1582,79.774416 C 226.50715,80.327803 225.88053,80.718427 225.27832,80.946291 C 224.6761,81.174156 224.02994,81.288088 223.33984,81.288088 C 222.20052,81.288088 221.32487,81.009768 220.71289,80.453127 C 220.10091,79.896488 219.79492,79.185226 219.79492,78.319338 C 219.79492,77.811529 219.91048,77.347662 220.1416,76.927737 C 220.37272,76.507819 220.67545,76.170906 221.0498,75.916995 C 221.42415,75.663094 221.8457,75.471037 222.31445,75.340823 C 222.6595,75.249683 223.18033,75.161792 223.87695,75.077151 C 225.29622,74.907886 226.34114,74.706063 227.01172,74.471682 C 227.01822,74.230804 227.02148,74.077809 227.02148,74.012698 C 227.02148,73.29656 226.85546,72.792003 226.52344,72.499026 C 226.07421,72.101899 225.40689,71.903332 224.52148,71.903323 C 223.69466,71.903332 223.08431,72.048189 222.69043,72.337893 C 222.29655,72.627615 222.00521,73.14031 221.81641,73.875979 L 220.09766,73.641604 C 220.25391,72.905935 220.51107,72.31186 220.86914,71.859377 C 221.22721,71.406913 221.74479,71.058606 222.42188,70.814456 C 223.09895,70.570325 223.88346,70.448255 224.77539,70.448245 C 225.6608,70.448255 226.3802,70.552422 226.93359,70.760745 C 227.48697,70.969088 227.89387,71.231132 228.1543,71.546877 C 228.4147,71.862642 228.597,72.261404 228.70117,72.743166 C 228.75976,73.042654 228.78905,73.583018 228.78906,74.36426 L 228.78906,76.70801 C 228.78905,78.342128 228.82649,79.375655 228.90137,79.808596 C 228.97623,80.24154 229.12434,80.656578 229.3457,81.053713 L 227.50977,81.053713 C 227.32747,80.68913 227.21028,80.262699 227.1582,79.774416 L 227.1582,79.774416 z M 227.01172,75.848635 C 226.37369,76.109057 225.41666,76.330411 224.14063,76.512698 C 223.41796,76.616869 222.9069,76.734056 222.60742,76.86426 C 222.30794,76.994473 222.07682,77.184902 221.91406,77.435549 C 221.7513,77.686204 221.66992,77.964524 221.66992,78.27051 C 221.66992,78.739263 221.84733,79.129887 222.20215,79.442385 C 222.55696,79.754887 223.07617,79.911136 223.75977,79.911135 C 224.43684,79.911136 225.03906,79.763025 225.56641,79.466799 C 226.09374,79.170577 226.48111,78.765304 226.72852,78.250979 C 226.91731,77.853847 227.01171,77.26791 227.01172,76.493166 L 227.01172,75.848635 z M 238.25195,81.053713 L 238.25195,79.74512 C 237.59439,80.773766 236.6276,81.288088 235.35156,81.288088 C 234.52474,81.288088 233.76464,81.060224 233.07129,80.604495 C 232.37793,80.148766 231.84082,79.512374 231.45996,78.695315 C 231.0791,77.878261 230.88867,76.939134 230.88867,75.877932 C 230.88867,74.842782 231.0612,73.903655 231.40625,73.060549 C 231.7513,72.217459 232.26888,71.571301 232.95898,71.122073 C 233.64909,70.672864 234.42057,70.448255 235.27344,70.448245 C 235.89843,70.448255 236.45507,70.580091 236.94336,70.843752 C 237.43163,71.107434 237.82877,71.450858 238.13477,71.874026 L 238.13477,66.737307 L 239.88281,66.737307 L 239.88281,81.053713 L 238.25195,81.053713 z M 232.69531,75.877932 C 232.69531,77.206061 232.97526,78.198899 233.53516,78.856448 C 234.09505,79.514001 234.75585,79.842777 235.51758,79.842776 C 236.2858,79.842777 236.93847,79.52865 237.47559,78.900393 C 238.01269,78.272141 238.28124,77.313483 238.28125,76.024416 C 238.28124,74.605152 238.0078,73.563486 237.46094,72.899416 C 236.91406,72.235363 236.24023,71.903332 235.43945,71.903323 C 234.6582,71.903332 234.00553,72.222342 233.48145,72.860354 C 232.95735,73.498382 232.69531,74.504241 232.69531,75.877932 L 232.69531,75.877932 z M 249.38477,81.053713 L 249.38477,79.74512 C 248.72721,80.773766 247.76041,81.288088 246.48438,81.288088 C 245.65755,81.288088 244.89746,81.060224 244.2041,80.604495 C 243.51074,80.148766 242.97363,79.512374 242.59277,78.695315 C 242.21191,77.878261 242.02148,76.939134 242.02148,75.877932 C 242.02148,74.842782 242.19401,73.903655 242.53906,73.060549 C 242.88411,72.217459 243.40169,71.571301 244.0918,71.122073 C 244.7819,70.672864 245.55338,70.448255 246.40625,70.448245 C 247.03124,70.448255 247.58788,70.580091 248.07617,70.843752 C 248.56445,71.107434 248.96158,71.450858 249.26758,71.874026 L 249.26758,66.737307 L 251.01563,66.737307 L 251.01563,81.053713 L 249.38477,81.053713 z M 243.82813,75.877932 C 243.82812,77.206061 244.10807,78.198899 244.66797,78.856448 C 245.22786,79.514001 245.88867,79.842777 246.65039,79.842776 C 247.41861,79.842777 248.07128,79.52865 248.6084,78.900393 C 249.1455,78.272141 249.41405,77.313483 249.41406,76.024416 C 249.41405,74.605152 249.14062,73.563486 248.59375,72.899416 C 248.04687,72.235363 247.37304,71.903332 246.57227,71.903323 C 245.79101,71.903332 245.13834,72.222342 244.61426,72.860354 C 244.09017,73.498382 243.82812,74.504241 243.82813,75.877932 L 243.82813,75.877932 z M 253.79883,68.758791 L 253.79883,66.737307 L 255.55664,66.737307 L 255.55664,68.758791 L 253.79883,68.758791 z M 253.79883,81.053713 L 253.79883,70.68262 L 255.55664,70.68262 L 255.55664,81.053713 L 253.79883,81.053713 z M 258.24219,81.053713 L 258.24219,70.68262 L 259.82422,70.68262 L 259.82422,72.157229 C 260.58593,71.017916 261.68619,70.448255 263.125,70.448245 C 263.74999,70.448255 264.32454,70.56056 264.84863,70.785159 C 265.37271,71.009778 265.76497,71.304374 266.02539,71.668948 C 266.2858,72.03354 266.46809,72.466482 266.57227,72.967776 C 266.63736,73.293304 266.66991,73.862965 266.66992,74.67676 L 266.66992,81.053713 L 264.91211,81.053713 L 264.91211,74.74512 C 264.9121,74.028981 264.84374,73.4935 264.70703,73.138674 C 264.5703,72.783865 264.32779,72.500662 263.97949,72.289065 C 263.63118,72.077485 263.22265,71.971691 262.75391,71.971682 C 262.0052,71.971691 261.35905,72.209321 260.81543,72.684573 C 260.27181,73.159841 260,74.061533 260,75.389651 L 260,81.053713 L 258.24219,81.053713 z M 269.05273,81.91309 L 270.76172,82.16699 C 270.83333,82.69434 271.0319,83.07845 271.35742,83.31934 C 271.79362,83.64486 272.38932,83.80762 273.14453,83.80762 C 273.95833,83.80762 274.58658,83.64486 275.0293,83.31934 C 275.472,82.99382 275.77148,82.53809 275.92773,81.95215 C 276.01887,81.59408 276.06119,80.842125 276.05469,79.696291 C 275.28645,80.60124 274.32942,81.053713 273.18359,81.053713 C 271.75781,81.053713 270.65429,80.539391 269.87305,79.510745 C 269.0918,78.482101 268.70117,77.248379 268.70117,75.809573 C 268.70117,74.819996 268.88021,73.906911 269.23828,73.070315 C 269.59635,72.233735 270.11556,71.587577 270.7959,71.131838 C 271.47623,70.67612 272.27539,70.448255 273.19336,70.448245 C 274.41731,70.448255 275.42642,70.943046 276.2207,71.93262 L 276.2207,70.68262 L 277.8418,70.68262 L 277.8418,79.647463 C 277.84179,81.262046 277.6774,82.40625 277.34863,83.08008 C 277.01985,83.75391 276.49901,84.28613 275.78613,84.67676 C 275.07324,85.06738 274.19596,85.26269 273.1543,85.2627 C 271.91731,85.26269 270.91797,84.98437 270.15625,84.42774 C 269.39453,83.87109 269.02669,83.03288 269.05273,81.91309 L 269.05273,81.91309 z M 270.50781,75.68262 C 270.50781,77.043301 270.77799,78.036138 271.31836,78.661135 C 271.85872,79.286137 272.5358,79.598637 273.34961,79.598635 C 274.15689,79.598637 274.83398,79.287765 275.38086,78.666018 C 275.92773,78.044276 276.20116,77.069342 276.20117,75.741213 C 276.20116,74.471689 275.91959,73.514658 275.35645,72.87012 C 274.79329,72.225597 274.11458,71.903332 273.32031,71.903323 C 272.53906,71.903332 271.875,72.220714 271.32813,72.855471 C 270.78125,73.490244 270.50781,74.432626 270.50781,75.68262 L 270.50781,75.68262 z "
     style="font-size:18px;font-style:italic;font-weight:normal;text-align:center;text-anchor:middle;fill:black;fill-opacity:1;stroke:none;stroke-width:1px;stroke-linecap:butt;stroke-linejoin:miter;stroke-opacity:1;font-family:Comic Sans MS"
     id="text15586" />
  <path
     d="M 128.85744,55.602075 L 128.85744,44.23734 L 133.13436,44.23734 C 134.0053,44.237352 134.70386,44.352343 135.23006,44.582313 C 135.75625,44.812306 136.16838,45.166323 136.46649,45.644365 C 136.76457,46.122428 136.91361,46.622445 136.91362,47.144417 C 136.91361,47.63023 136.78141,48.08761 136.51702,48.516558 C 136.25262,48.945519 135.85345,49.291784 135.31949,49.555353 C 136.00897,49.756916 136.53905,50.100597 136.90973,50.586397 C 137.28038,51.072207 137.46572,51.645869 137.46573,52.307386 C 137.46572,52.839708 137.35297,53.334556 137.12747,53.791934 C 136.90194,54.249315 136.6233,54.60204 136.29151,54.85011 C 135.95972,55.098181 135.5437,55.285526 135.04343,55.412145 C 134.54315,55.538765 133.93012,55.602075 133.20435,55.602075 L 128.85744,55.602075 z M 130.36602,49.012698 L 132.83109,49.012698 C 133.49985,49.012705 133.97938,48.968776 134.2697,48.880912 C 134.65332,48.76722 134.94233,48.578583 135.13675,48.315001 C 135.33115,48.051433 135.42835,47.720672 135.42836,47.322718 C 135.42835,46.945452 135.33763,46.613401 135.15619,46.32656 C 134.97474,46.039738 134.71553,45.843349 134.37857,45.737392 C 134.04159,45.631455 133.46355,45.578482 132.64446,45.578472 L 130.36602,45.578472 L 130.36602,49.012698 z M 130.36602,54.260942 L 133.20435,54.260942 C 133.69165,54.260944 134.03381,54.242855 134.23082,54.206677 C 134.57814,54.144661 134.86846,54.041298 135.10175,53.896588 C 135.33504,53.751882 135.52684,53.541281 135.67719,53.264784 C 135.82753,52.988291 135.90269,52.669159 135.9027,52.307386 C 135.90269,51.883603 135.79384,51.515373 135.57611,51.202697 C 135.35836,50.89003 135.05638,50.670384 134.67017,50.54376 C 134.28395,50.417146 133.72795,50.353836 133.00217,50.353831 L 130.36602,50.353831 L 130.36602,54.260942 z M 138.85767,51.485652 C 138.85767,49.961058 139.28277,48.831821 140.13298,48.097939 C 140.8432,47.488106 141.70896,47.183186 142.73024,47.183178 C 143.86557,47.183186 144.79353,47.554 145.51414,48.29562 C 146.23472,49.037254 146.59502,50.061836 146.59503,51.369369 C 146.59502,52.428841 146.43561,53.262203 146.11679,53.869456 C 145.79796,54.476713 145.33398,54.948305 144.72485,55.284234 C 144.11571,55.620163 143.45084,55.788126 142.73024,55.788127 C 141.57417,55.788126 140.63973,55.418606 139.92691,54.679562 C 139.21408,53.940519 138.85767,52.875885 138.85767,51.485652 L 138.85767,51.485652 z M 140.29628,51.485652 C 140.29628,52.539956 140.52698,53.329388 140.98837,53.853951 C 141.44975,54.378519 142.03038,54.640801 142.73024,54.640801 C 143.42492,54.640801 144.00295,54.377227 144.46434,53.850075 C 144.92573,53.322928 145.15642,52.519283 145.15643,51.439139 C 145.15642,50.421022 144.92443,49.649678 144.46045,49.125105 C 143.99646,48.600547 143.41973,48.338264 142.73024,48.338257 C 142.03038,48.338264 141.44975,48.599255 140.98837,49.121229 C 140.52698,49.643217 140.29628,50.431358 140.29628,51.485652 L 140.29628,51.485652 z M 148.22804,55.602075 L 148.22804,47.369231 L 149.48779,47.369231 L 149.48779,48.617337 C 149.8092,48.033345 150.106,47.648319 150.37817,47.462258 C 150.65033,47.276213 150.94972,47.183186 151.27632,47.183178 C 151.74808,47.183186 152.22761,47.333062 152.71493,47.632806 L 152.2328,48.927425 C 151.89064,48.725875 151.54849,48.625096 151.20634,48.625089 C 150.90047,48.625096 150.62571,48.71683 150.38206,48.900292 C 150.1384,49.083767 149.96473,49.338297 149.86105,49.663884 C 149.70552,50.160031 149.62776,50.702685 149.62776,51.291847 L 149.62776,55.602075 L 148.22804,55.602075 z M 158.92036,55.602075 L 158.92036,54.563278 C 158.39676,55.379845 157.62691,55.788126 156.61082,55.788127 C 155.95243,55.788126 155.34719,55.607243 154.79507,55.245473 C 154.24296,54.883704 153.81527,54.378519 153.512,53.729916 C 153.20872,53.081318 153.05708,52.335815 153.05708,51.493404 C 153.05708,50.671676 153.19447,49.926173 153.46922,49.256893 C 153.74399,48.587627 154.15612,48.07469 154.70564,47.71808 C 155.25516,47.361487 155.86948,47.183186 156.54861,47.183178 C 157.04628,47.183186 157.48953,47.287841 157.87835,47.497142 C 158.26715,47.70646 158.58339,47.979079 158.82705,48.315001 L 158.82705,44.23734 L 160.219,44.23734 L 160.219,55.602075 L 158.92036,55.602075 z M 154.49569,51.493404 C 154.49569,52.547708 154.7186,53.335849 155.16444,53.857827 C 155.61027,54.379811 156.13647,54.640801 156.74302,54.640801 C 157.35474,54.640801 157.87446,54.391439 158.30216,53.892712 C 158.72984,53.393989 158.94369,52.632982 158.9437,51.609688 C 158.94369,50.483039 158.72595,49.656138 158.29049,49.128982 C 157.85502,48.601839 157.31846,48.338264 156.68081,48.338257 C 156.05871,48.338264 155.53899,48.591503 155.12168,49.097973 C 154.70435,49.604456 154.49569,50.402933 154.49569,51.493404 L 154.49569,51.493404 z M 168.08077,52.95082 L 169.52715,53.129121 C 169.29904,53.971528 168.87653,54.625297 168.25963,55.090429 C 167.6427,55.555561 166.85471,55.788126 165.89565,55.788127 C 164.68773,55.788126 163.72996,55.417314 163.02233,54.675685 C 162.31469,53.934059 161.96088,52.893973 161.96088,51.555422 C 161.96088,50.170367 162.31858,49.095395 163.03399,48.330505 C 163.7494,47.565628 164.67737,47.183186 165.81789,47.183178 C 166.92211,47.183186 167.82415,47.557876 168.52402,48.307248 C 169.22387,49.056634 169.5738,50.110934 169.57381,51.470148 C 169.5738,51.552842 169.57121,51.676877 169.56604,51.842254 L 163.40725,51.842254 C 163.45909,52.746681 163.71571,53.43921 164.1771,53.919845 C 164.63849,54.400483 165.21393,54.640801 165.90342,54.640801 C 166.41666,54.640801 166.85471,54.50643 167.21761,54.237686 C 167.5805,53.968944 167.86821,53.539989 168.08077,52.95082 L 168.08077,52.95082 z M 163.48501,50.694928 L 168.09632,50.694928 C 168.03411,50.002403 167.85785,49.483005 167.56754,49.136734 C 167.1217,48.599255 166.54366,48.330512 165.83343,48.330505 C 165.1906,48.330512 164.65015,48.54499 164.2121,48.973937 C 163.77403,49.402899 163.53167,49.976562 163.48501,50.694928 L 163.48501,50.694928 z M 171.2768,55.602075 L 171.2768,47.369231 L 172.53655,47.369231 L 172.53655,48.617337 C 172.85797,48.033345 173.15477,47.648319 173.42694,47.462258 C 173.6991,47.276213 173.99848,47.183186 174.32509,47.183178 C 174.79685,47.183186 175.27638,47.333062 175.76369,47.632806 L 175.28157,48.927425 C 174.93941,48.725875 174.59726,48.625096 174.2551,48.625089 C 173.94924,48.625096 173.67447,48.71683 173.43082,48.900292 C 173.18717,49.083767 173.0135,49.338297 172.90982,49.663884 C 172.75429,50.160031 172.67653,50.702685 172.67653,51.291847 L 172.67653,55.602075 L 171.2768,55.602075 z "
     style="font-size:14.31099032999999920px;font-style:italic;font-weight:normal;text-align:center;text-anchor:middle;fill:#000000;fill-opacity:1;stroke:none;stroke-width:1px;stroke-linecap:butt;stroke-linejoin:miter;stroke-opacity:1;font-family:Comic Sans MS"
     id="text15590" />
  <path
     d="M 284.50007,76.5 L 334.50011,76.5"
     style="fill:none;fill-rule:evenodd;stroke:black;stroke-width:1.40000045;stroke-linecap:butt;stroke-linejoin:miter;marker-end:url(#Arrow1Lend);stroke-miterlimit:4;stroke-opacity:1"
     id="path21097" />
  <path
     d="M 201.74742,75.590487 L 137.25261,76.40951"
     style="fill:none;fill-rule:evenodd;stroke:black;stroke-width:1.4000001;stroke-linecap:butt;stroke-linejoin:miter;marker-end:url(#Arrow1Lend);stroke-miterlimit:4;stroke-opacity:1"
     id="path21984" />
  <path
     d="M 194.89241,137.94949 L 177.60761,125.05044"
     style="fill:none;fill-rule:evenodd;stroke:black;stroke-width:1.39999819;stroke-linecap:butt;stroke-linejoin:miter;marker-end:url(#Arrow2Mend);stroke-miterlimit:4;stroke-opacity:1"
     id="path21986" />
  <path
     d="M 196.9665,159.20324 L 183.45971,176.01742"
     style="fill:none;fill-rule:evenodd;stroke:black;stroke-width:1.39999831;stroke-linecap:butt;stroke-linejoin:miter;marker-end:url(#Arrow2Mend);stroke-miterlimit:4;stroke-opacity:1"
     id="path22875" />
  <path
     d="M 299.20283,135.46589 L 316.20374,122.19492"
     style="fill:none;fill-rule:evenodd;stroke:black;stroke-width:1.39999783;stroke-linecap:butt;stroke-linejoin:miter;marker-end:url(#Arrow2Mend);stroke-miterlimit:4;stroke-opacity:1"
     id="path22877" />
  <path
     d="M 304.43555,161.24983 L 320.79947,175.29874"
     style="fill:none;fill-rule:evenodd;stroke:black;stroke-width:1.39999819;stroke-linecap:butt;stroke-linejoin:miter;marker-end:url(#Arrow2Mend);stroke-miterlimit:4;stroke-opacity:1"
     id="path22879" />
  <path
     d="m 281.99998,22.5 50.00004,0"
     style="fill:none;stroke:#000000;stroke-width:1.40000045;stroke-linecap:butt;stroke-linejoin:miter;stroke-miterlimit:4;stroke-opacity:1;marker-end:url(#Arrow1Lend)"
     id="path22881" />
  <path
     d="m 208.00001,22.950396 -49.99994,0.09922"
     style="fill:none;stroke:#000000;stroke-width:1.40000045;stroke-linecap:butt;stroke-linejoin:miter;stroke-miterlimit:4;stroke-opacity:1;marker-end:url(#Arrow1Lend)"
     id="path22883" />
  <path
     d="M 178.49996,51.749995 L 212.99998,51.749995"
     style="fill:none;fill-rule:evenodd;stroke:black;stroke-width:1.40000021;stroke-linecap:butt;stroke-linejoin:miter;marker-end:url(#Arrow1Lend);stroke-miterlimit:4;stroke-opacity:1"
     id="path22885" />
  <path
     d="M 484.22578,86.65035 L 473.34989,68.026043"
     style="fill:none;fill-rule:evenodd;stroke:black;stroke-width:1.39999819;stroke-linecap:butt;stroke-linejoin:miter;marker-end:url(#Arrow2Mend);stroke-miterlimit:4;stroke-opacity:1"
     id="path22887" />
  <path
     d="m 490.02332,87.412518 c 1.90061,-0.04034 3.39939,0.438376 4.49634,1.436165 1.09693,0.997778 1.66253,2.303771 1.6968,3.917998 0.0224,1.057052 -0.20991,2.015318 -0.69697,2.874816 -0.48709,0.85947 -1.17763,1.521412 -2.07162,1.985806 -0.894,0.464375 -1.91378,0.708729 -3.05934,0.733052 -1.16121,0.02464 -2.20501,-0.187644 -3.13141,-0.636817 -0.92641,-0.449204 -1.63436,-1.098398 -2.12384,-1.947563 -0.48949,-0.849185 -0.74477,-1.771065 -0.76588,-2.765621 -0.0229,-1.077888 0.21703,-2.046737 0.71973,-2.906558 0.5027,-0.85982 1.19982,-1.517991 2.09139,-1.974502 0.89155,-0.456521 1.83982,-0.695446 2.8448,-0.716776 l 0,0 z m 0.01,1.562646 c -1.37991,0.02928 -2.45903,0.423364 -3.23736,1.18224 -0.77836,0.758867 -1.15564,1.698075 -1.13188,2.817623 0.0242,1.140353 0.44507,2.070432 1.26262,2.790237 0.81754,0.719784 1.96312,1.064043 3.43675,1.032777 0.93207,-0.01979 1.74234,-0.194575 2.43082,-0.524358 0.68847,-0.329793 1.21763,-0.802068 1.58749,-1.416815 0.36983,-0.614766 0.54675,-1.299664 0.53074,-2.054695 -0.0228,-1.072678 -0.41078,-1.987821 -1.16399,-2.745449 -0.75324,-0.757628 -1.99163,-1.118151 -3.71519,-1.08156 l 0,0 z m -5.20133,16.707886 1.21847,-0.0259 c -0.95099,-0.62581 -1.43826,-1.49327 -1.4618,-2.60239 -0.0104,-0.48947 0.0736,-0.94839 0.2521,-1.37675 0.17845,-0.42837 0.40738,-0.74841 0.68681,-0.9601 0.27942,-0.21171 0.62393,-0.36358 1.03353,-0.45564 0.27476,-0.0631 0.71156,-0.10105 1.31038,-0.11376 l 5.13947,-0.10908 0.0298,1.40594 -4.60053,0.0976 c -0.73421,0.0156 -1.22828,0.0547 -1.48221,0.11741 -0.36784,0.0964 -0.65415,0.28998 -0.85897,0.58085 -0.20481,0.29088 -0.30274,0.64719 -0.29378,1.06898 0.009,0.42177 0.12539,0.81523 0.34933,1.18035 0.22395,0.36512 0.52371,0.62054 0.89928,0.76625 0.37557,0.14571 0.91744,0.21104 1.62562,0.19602 l 4.44431,-0.0943 0.0298,1.40593 -8.295,0.17605 -0.0267,-1.25752 z m 1.39628,6.5109 -1.2376,0.22943 c -0.0917,-0.39397 -0.14089,-0.74718 -0.14752,-1.05961 -0.0108,-0.51031 0.0615,-0.90776 0.21694,-1.19237 0.15545,-0.28462 0.36345,-0.48698 0.62398,-0.60713 0.26052,-0.12013 0.81256,-0.18915 1.65613,-0.20706 l 4.77236,-0.10129 -0.0219,-1.03101 1.0935,-0.0232 0.0219,1.03101 2.05423,-0.0436 0.87324,1.38022 -2.89779,0.0615 0.03,1.41374 -1.0935,0.0232 -0.03,-1.41374 -4.85046,0.10294 c -0.40095,0.008 -0.65819,0.0387 -0.77169,0.0906 -0.11351,0.0519 -0.20293,0.13455 -0.26823,0.24794 -0.0653,0.11339 -0.0958,0.27422 -0.0914,0.48251 0.003,0.15622 0.0259,0.36152 0.0678,0.6159 l 0,0 z m -1.22918,1.36232 11.45054,-0.24302 0.0298,1.40593 -11.45054,0.24303 -0.0298,-1.40594 z m 9.91015,3.39204 1.61681,-0.0343 0.0298,1.40593 -1.61681,0.0343 -0.0298,-1.40594 z m -9.83373,0.20871 8.295,-0.17605 0.0298,1.40593 -8.295,0.17606 -0.0298,-1.40594 z m 0.0754,3.55389 8.295,-0.17605 0.0269,1.26534 -1.17942,0.025 c 0.92418,0.58989 1.39847,1.46023 1.42291,2.61102 0.0106,0.49988 -0.0695,0.96132 -0.24021,1.38431 -0.17076,0.42299 -0.39972,0.74172 -0.6869,0.9562 -0.28718,0.21447 -0.63037,0.36762 -1.02954,0.45945 -0.25926,0.0576 -0.71433,0.0933 -1.36523,0.10712 l -5.10041,0.10825 -0.0298,-1.40594 5.04574,-0.10709 c 0.57278,-0.0122 0.99991,-0.0759 1.28139,-0.19129 0.28146,-0.11538 0.50385,-0.31415 0.66718,-0.59632 0.16331,-0.28218 0.241,-0.61072 0.23304,-0.98564 -0.0127,-0.59882 -0.21374,-1.1116 -0.60309,-1.53833 -0.38935,-0.42673 -1.11516,-0.62883 -2.17741,-0.60627 l -4.53023,0.0961 -0.0298,-1.40594 z m 2.98077,14.52596 -0.14881,1.45661 c -0.85363,-0.21111 -1.52135,-0.62151 -2.00314,-1.23121 -0.4818,-0.60971 -0.73291,-1.39622 -0.75336,-2.35955 -0.0258,-1.21326 0.32745,-2.18322 1.05958,-2.90985 0.73215,-0.72664 1.77254,-1.10426 3.1212,-1.13289 1.39551,-0.0296 2.48623,0.30668 3.27214,1.00892 0.78591,0.70223 1.19102,1.62613 1.21534,2.77171 0.0235,1.10912 -0.33475,2.02317 -1.07486,2.74218 -0.74012,0.71897 -1.79493,1.09301 -3.16441,1.12208 -0.0833,0.002 -0.20835,0.002 -0.37508,1.5e-4 l -0.13129,-6.18611 c -0.91015,0.0714 -1.60244,0.34397 -2.07687,0.81769 -0.47443,0.47372 -0.70429,1.05684 -0.68959,1.7494 0.0109,0.5155 0.15566,0.95264 0.43417,1.3114 0.27851,0.35874 0.71683,0.63857 1.31498,0.83947 l 0,0 z m 2.17496,-4.66438 0.0983,4.63176 c 0.69643,-0.0773 1.21599,-0.26545 1.55868,-0.56445 0.53204,-0.45931 0.79049,-1.04566 0.77535,-1.75904 -0.0137,-0.64569 -0.24132,-1.18394 -0.68285,-1.61478 -0.44154,-0.43083 -1.0247,-0.662 -1.74948,-0.69349 l 0,0 z"
     style="font-size:16px;font-style:italic;font-weight:normal;text-align:center;text-anchor:middle;fill:#000000;fill-opacity:1;stroke:none;font-family:Comic Sans MS"
     id="text22889" />
</svg>
