<?xml version="1.0" encoding="utf-8"?>
<!-- Generator: Adobe Illustrator 12.0.1, SVG Export Plug-In . SVG Version: 6.00 Build 51448)  -->
<!DOCTYPE svg PUBLIC "-//W3C//DTD SVG 1.1//EN" "http://www.w3.org/Graphics/SVG/1.1/DTD/svg11.dtd" [
	<!ENTITY ns_svg "http://www.w3.org/2000/svg">
	<!ENTITY ns_xlink "http://www.w3.org/1999/xlink">
]>
<svg  version="1.1" id="Layer_1" xmlns="&ns_svg;" xmlns:xlink="&ns_xlink;" width="372" height="166" viewBox="0 0 372 166"
	 overflow="visible" enable-background="new 0 0 372 166" xml:space="preserve">
<rect fill="#FFFFFF" width="372" height="166"/>
<rect x="146.312" y="85.669" fill="#FFFFFF" width="8.34" height="72"/>
<rect x="116.192" y="85.669" fill="#D9D0EF" width="30.12" height="72"/>
<rect x="154.652" y="85.669" fill="#CFDEE8" width="25.38" height="72"/>
<rect x="111.633" y="85.669" fill="#FFFFFF" width="4.56" height="72"/>
<rect x="39.694" y="85.669" fill="#FFFFFF" width="4.5" height="72"/>
<rect x="6.333" y="85.669" fill="#CFDEE8" width="33.36" height="72"/>
<rect x="44.193" y="85.669" fill="#D9D0EF" width="30.12" height="72"/>
<rect x="79.053" y="85.669" fill="#CFDEE8" width="32.58" height="72"/>
<rect x="74.313" y="85.669" fill="#FFFFFF" width="4.739" height="72"/>
<rect x="180.032" y="85.669" fill="#FFFFFF" width="6.06" height="72"/>
<rect x="296.85" y="85.669" fill="#CFDEE8" width="28.38" height="72"/>
<rect x="325.23" y="85.669" fill="#FFFFFF" width="6.898" height="72"/>
<rect x="332.128" y="85.669" fill="#D9D0EF" width="31.633" height="72"/>
<rect x="288.991" y="85.669" fill="#FFFFFF" width="7.859" height="72"/>
<rect x="186.091" y="85.669" fill="#D9D0EF" width="31.98" height="72"/>
<rect x="218.072" y="85.669" fill="#FFFFFF" width="6.479" height="72"/>
<rect x="224.55" y="85.669" fill="#CFDEE8" width="29.641" height="72"/>
<rect x="254.191" y="85.669" fill="#FFFFFF" width="7.199" height="72"/>
<rect x="261.39" y="85.669" fill="#D9D0EF" width="27.601" height="72"/>
<rect x="150.395" y="8" fill="#FFFFFF" width="4.619" height="72"/>
<rect x="119.792" y="8" fill="#FFFFFF" width="4.439" height="72"/>
<rect x="92.012" y="8" fill="#D9D0EF" width="27.78" height="72"/>
<rect x="124.231" y="8" fill="#CFDEE8" width="26.164" height="72"/>
<rect x="88.353" y="8" fill="#FFFFFF" width="3.659" height="72"/>
<rect x="40.113" y="8" fill="#D9D0EF" width="19.32" height="72"/>
<rect x="6.333" y="8" fill="#CFDEE8" width="29.16" height="72"/>
<rect x="35.494" y="8" fill="#FFFFFF" width="4.619" height="72"/>
<rect x="62.192" y="8" fill="#CFDEE8" width="26.16" height="72"/>
<rect x="59.433" y="8" fill="#FFFFFF" width="2.759" height="72"/>
<rect x="155.014" y="8" fill="#D9D0EF" width="19.32" height="72"/>
<rect x="275.012" y="8" fill="#CFDEE8" width="23.641" height="72"/>
<rect x="241.592" y="8" fill="#D9D0EF" width="29.641" height="72"/>
<rect x="174.334" y="8" fill="#FFFFFF" width="1.799" height="72"/>
<rect x="299.913" y="8" fill="#D9D0EF" width="13.351" height="72"/>
<rect x="298.653" y="8" fill="#FFFFFF" width="1.26" height="72"/>
<rect x="237.633" y="8" fill="#FFFFFF" width="3.959" height="72"/>
<rect x="271.233" y="8" fill="#FFFFFF" width="3.779" height="72"/>
<rect x="192.754" y="8" fill="#FFFFFF" width="2.339" height="72"/>
<rect x="211.473" y="8" fill="#CFDEE8" width="26.16" height="72"/>
<rect x="176.133" y="8" fill="#CFDEE8" width="16.621" height="72"/>
<rect x="208.293" y="8" fill="#FFFFFF" width="3.18" height="72"/>
<rect x="195.093" y="8" fill="#D9D0EF" width="13.2" height="72"/>
<g>
	<path fill="#272425" d="M21.514,20.698c4.26,0,7.68,0.72,10.08,2.52c2.34,1.74,3.9,4.5,3.9,8.46c0,7.74-5.88,11.52-11.7,12.3
		c-0.9,0.06-2.04,0.06-2.7,0l-4.44-1.14v9.42c0,5.1,0.54,5.4,5.94,5.76v1.68H6.333v-1.68c4.8-0.36,5.28-0.84,5.28-5.82v-24
		c0-5.28-0.48-5.52-4.92-5.82v-1.68H21.514z M16.654,40.858c0.78,0.3,2.4,0.72,4.38,0.72c3.9,0,8.7-2.1,8.7-9.72
		c0-6.48-4.14-9.24-9.06-9.24c-1.68,0-2.94,0.3-3.36,0.72c-0.48,0.42-0.66,1.14-0.66,2.82V40.858z"/>
	<path fill="#272425" d="M48.693,39.118c1.8-3,4.38-6.36,7.26-6.36c2.04,0,3.48,1.56,3.48,3c0,1.2-0.78,2.4-1.92,2.94
		c-0.72,0.3-1.26,0.24-1.62-0.12c-0.84-0.9-1.56-1.26-2.52-1.26c-1.56,0-3.48,1.8-4.8,5.16v10.98c0,3.96,0.3,4.32,4.92,4.68v1.56
		h-13.8v-1.56c3.72-0.36,4.14-0.72,4.14-4.68v-12.42c0-3.96-0.3-4.2-3.72-4.68v-1.32c2.94-0.48,5.58-1.2,8.46-2.46v6.54H48.693z"/>
	<path fill="#272425" d="M75.392,32.758c7.38,0,12.96,5.94,12.96,13.38c0,9.66-7.08,14.28-13.021,14.28
		c-8.22,0-13.14-6.6-13.14-13.26c0-9.9,7.68-14.4,13.14-14.4H75.392z M74.672,34.738c-3.66,0-6.9,3.72-6.9,10.5
		c0,7.56,3.3,13.2,8.22,13.2c3.72,0,6.78-2.76,6.78-10.98c0-7.02-2.82-12.72-8.04-12.72H74.672z"/>
	<path fill="#272425" d="M106.232,33.658c1.08-0.6,2.22-0.9,2.94-0.9c6.66,0,10.62,5.4,10.62,11.34c0,9.06-7.14,14.88-14.94,16.32
		c-1.74-0.06-3.36-0.66-4.14-1.08v7.86c0,4.56,0.42,4.86,5.1,5.28v1.62h-14.22v-1.62c3.84-0.36,4.38-0.72,4.38-4.68v-27.12
		c0-3.9-0.24-4.02-3.96-4.5v-1.44c2.52-0.42,5.88-1.44,8.7-2.58v4.74L106.232,33.658z M100.712,55.138c1.32,1.38,3.6,2.34,5.64,2.34
		c5.04,0,8.4-4.32,8.4-11.1c0-6.42-3.66-10.02-8.04-10.02c-1.92,0-4.38,1.32-6,2.52V55.138z"/>
	<path fill="#272425" d="M137.435,32.758c7.38,0,12.96,5.94,12.96,13.38c0,9.66-7.08,14.28-13.02,14.28
		c-8.225,0-13.145-6.6-13.145-13.26c0-9.9,7.681-14.4,13.145-14.4H137.435z M136.715,34.738c-3.661,0-6.905,3.72-6.905,10.5
		c0,7.56,3.304,13.2,8.225,13.2c3.72,0,6.779-2.76,6.779-10.98c0-7.02-2.82-12.72-8.039-12.72H136.715z"/>
	<path fill="#272425" d="M163.594,39.118c1.801-3,4.381-6.36,7.261-6.36c2.04,0,3.479,1.56,3.479,3c0,1.2-0.779,2.4-1.92,2.94
		c-0.72,0.3-1.26,0.24-1.619-0.12c-0.84-0.9-1.561-1.26-2.521-1.26c-1.56,0-3.479,1.8-4.8,5.16v10.98c0,3.96,0.3,4.32,4.92,4.68
		v1.56h-13.801v-1.56c3.721-0.36,4.141-0.72,4.141-4.68v-12.42c0-3.96-0.301-4.2-3.721-4.68v-1.32c2.94-0.48,5.58-1.2,8.461-2.46
		v6.54H163.594z"/>
	<path fill="#272425" d="M188.674,59.638c-1.02,0.54-1.98,0.78-2.52,0.78c-3.781,0-5.881-2.4-5.881-7.14v-17.46h-4.141l-0.239-0.6
		l1.62-1.74h2.76v-4.38l3.9-3.96l0.84,0.12v8.22h6.779c0.541,0.6,0.361,1.92-0.359,2.34h-6.42v15.42c0,4.86,1.98,5.76,3.48,5.76
		s2.879-0.6,3.72-1.02l0.54,1.56L188.674,59.638z"/>
	<path fill="#272425" d="M195.093,59.698v-1.56c3.78-0.36,4.2-0.72,4.2-4.8v-12.42c0-3.66-0.18-3.96-3.78-4.5v-1.44
		c3.06-0.48,5.88-1.26,8.521-2.34v20.7c0,4.08,0.42,4.44,4.26,4.8v1.56H195.093z M198.274,24.478c0-1.8,1.439-3.12,3.06-3.12
		c1.68,0,3,1.32,3,3.12c0,1.62-1.32,3.06-3.06,3.06C199.713,27.538,198.274,26.098,198.274,24.478z"/>
	<path fill="#272425" d="M224.672,32.758c7.381,0,12.961,5.94,12.961,13.38c0,9.66-7.08,14.28-13.021,14.28
		c-8.22,0-13.14-6.6-13.14-13.26c0-9.9,7.68-14.4,13.14-14.4H224.672z M223.954,34.738c-3.66,0-6.9,3.72-6.9,10.5
		c0,7.56,3.3,13.2,8.22,13.2c3.72,0,6.78-2.76,6.78-10.98c0-7.02-2.82-12.72-8.04-12.72H223.954z"/>
	<path fill="#272425" d="M258.752,59.698v-1.56c3.54-0.36,3.961-0.84,3.961-4.98v-10.02c0-4.14-1.441-6.84-5.461-6.84
		c-2.4,0-4.74,1.5-6.54,3.06v14.1c0,4.08,0.36,4.32,3.9,4.68v1.56h-13.021v-1.56c4.08-0.42,4.381-0.72,4.381-4.68v-12.42
		c0-3.84-0.36-4.02-3.601-4.62v-1.38c2.88-0.54,5.7-1.26,8.34-2.46v4.8c1.2-0.9,2.521-1.8,4.021-2.82c1.68-1.08,3.24-1.8,4.98-1.8
		c4.739,0,7.739,3.3,7.739,9.12v11.58c0,4.08,0.3,4.32,3.78,4.68v1.56H258.752z"/>
	<path fill="#272425" d="M293.552,60.418c-0.899,0-2.159-0.54-2.819-1.14c-0.78-0.84-1.141-1.68-1.44-2.7
		c-2.399,1.62-5.28,3.84-7.08,3.84c-4.26,0-7.2-3.54-7.2-7.32c0-2.94,1.561-4.8,4.86-5.94c3.601-1.2,7.979-2.82,9.3-3.9v-1.08
		c0-4.32-2.04-6.78-5.04-6.78c-1.2,0-2.101,0.48-2.7,1.2c-0.779,0.78-1.32,2.1-1.8,3.9c-0.239,1.02-0.899,1.44-1.739,1.44
		c-1.08,0-2.641-1.2-2.641-2.58c0-0.9,0.779-1.56,1.92-2.4c1.68-1.2,5.58-3.54,9-4.2c1.801,0,3.6,0.54,4.92,1.62
		c2.101,1.74,2.7,4.2,2.7,7.32v11.16c0,2.7,1.08,3.6,2.1,3.6c0.721,0,1.561-0.3,2.16-0.66l0.601,1.56L293.552,60.418z
		 M289.172,45.298c-1.26,0.66-4.141,1.92-5.4,2.52c-2.34,1.08-3.66,2.22-3.66,4.38c0,3.12,2.4,4.62,4.261,4.62
		c1.56-0.06,3.66-1.08,4.8-2.16V45.298z"/>
	<path fill="#272425" d="M299.913,59.698v-1.56c3.779-0.36,4.319-0.72,4.319-4.68v-28.38c0-4.08-0.359-4.26-4.14-4.56v-1.44
		c3.12-0.36,6.84-1.38,8.88-2.1v36.48c0,3.96,0.48,4.32,4.32,4.68v1.56H299.913z"/>
</g>
<g>
	<path fill="#272425" d="M30.094,137.388v-3.3h3.48v-27.72h-0.66l-8.58,22.56h-2.52l-8.76-22.56h-0.54v27.72h3.66v3.3h-9.84v-3.3
		h2.88v-27.72h-2.88v-3.3h8.88l7.92,20.4l7.8-20.4h8.7v3.3h-2.76v27.72h2.82v3.3H30.094z"/>
	<path fill="#272425" d="M59.434,138.108c-9.36,0-15.24-5.76-15.24-13.74c0-8.58,6.72-13.8,15.18-13.8
		c11.52,0,14.94,8.52,14.94,13.8C74.313,132.228,68.553,138.108,59.434,138.108z M59.313,113.868c-7.44,0-11.82,4.98-11.82,10.56
		c0,4.86,3.78,10.38,11.88,10.38c6.84,0,11.64-4.38,11.64-10.38C71.014,121.188,68.974,113.868,59.313,113.868z"/>
	<path fill="#272425" d="M98.553,137.388v-3.3h4.92v-15.3c0-4.14-3.36-4.92-5.94-4.92c-3.66,0-7.74,2.16-10.26,4.92v15.3h4.98v3.3
		h-13.2v-3.3h4.98v-19.38h-4.98v-3.36h8.22v3.78c3.06-2.76,7.08-4.56,11.22-4.56c2.88,0,4.74,0.78,6,1.8
		c1.8,1.5,2.22,4.14,2.22,6.36v15.36h4.92v3.3H98.553z"/>
	<path fill="#272425" d="M131.433,138.108c-9.36,0-15.24-5.76-15.24-13.74c0-8.58,6.72-13.8,15.18-13.8
		c11.52,0,14.939,8.52,14.939,13.8C146.312,132.228,140.552,138.108,131.433,138.108z M131.313,113.868
		c-7.44,0-11.82,4.98-11.82,10.56c0,4.86,3.78,10.38,11.88,10.38c6.84,0,11.641-4.38,11.641-10.38
		C143.013,121.188,140.972,113.868,131.313,113.868z"/>
	<path fill="#272425" d="M168.632,138.108c-4.801,0-7.74-1.32-10.681-2.7v2.7h-3.3v-10.2h3.3v3.54c2.88,2.22,6.181,3.36,9.96,3.36
		c2.221,0,8.82-0.48,8.82-4.92c0-0.36-0.12-1.32-0.42-1.74c-1.62-2.28-4.74-1.86-7.38-2.1c-4.44-0.36-9.06-0.12-12.24-3
		c-1.14-1.02-1.56-2.64-1.56-4.14c0-5.16,4.319-8.34,10.92-8.34c3.359,0,6.6,0.78,9.3,2.4v-2.4h3.239v9.48h-3.239v-3.54
		c-2.521-1.62-5.82-2.64-9.12-2.64c-2.58,0-7.859,0.78-7.859,4.5c0,1.08,0.659,2.16,1.559,2.76c2.761,1.74,8.281,1.56,12.421,1.86
		c4.14,0.3,7.68,1.56,7.68,6.54C180.032,134.688,175.292,138.108,168.632,138.108z"/>
	<path fill="#272425" d="M204.931,138.108c-5.46,0-8.76-2.46-10.619-4.86v12.48h9.18v3.3h-17.4v-3.3h4.98v-31.08h-4.98v-3.3h8.221
		v4.2c2.159-2.82,5.76-4.98,10.92-4.98c4.619,0,9.06,2.28,11.459,7.26c0.9,1.86,1.381,4.08,1.381,6.3
		C218.072,132.228,212.251,138.108,204.931,138.108z M204.872,113.868c-6.479,0-10.38,4.92-10.38,10.38
		c0,6.3,4.68,10.56,10.26,10.56c4.92,0,10.02-3.96,10.02-10.62C214.771,120.708,212.732,113.868,204.872,113.868z"/>
	<path fill="#272425" d="M246.091,137.388v-5.04c-3.301,3.18-7.44,5.76-12,5.76c-6.121,0-9.541-4.2-9.541-8.1
		c0-3.54,3.181-8.76,13.021-8.76c2.88,0,5.82,0.42,8.46,0.84v-1.86c0-1.98-0.42-4.08-1.98-5.04c-1.739-1.08-3.719-1.26-5.76-1.26
		c-4.08,0-8.4,1.62-10.26,2.52l-0.84-3.24c3.48-1.44,7.62-2.64,11.7-2.64c5.1,0,8.101,1.8,9.36,4.14c0.899,1.62,1.02,3.3,1.02,4.92
		v14.46h4.92v3.3H246.091z M246.031,125.388c-2.52-0.42-5.04-0.78-7.68-0.78c-2.82,0-6.061,0.12-8.28,1.68
		c-1.2,0.84-2.16,2.16-2.16,3.78c0,2.28,2.58,4.74,6.24,4.74c4.86,0,8.88-2.82,11.88-6.42V125.388z"/>
	<path fill="#272425" d="M275.611,138.108c-7.561,0-14.221-5.22-14.221-14.1c0-5.46,4.141-13.44,14.521-13.44
		c3.479,0,6.36,1.02,9.12,2.88v-2.88h3.3v10.5h-3.3v-4.14c-2.58-2.16-5.76-3-9.18-3c-6.841,0-11.16,4.92-11.16,10.26
		c0,3.9,2.58,10.68,11.939,10.68c4.86,0,9.54-3.48,11.04-4.8l1.32,3.3C285.451,136.128,281.191,138.108,275.611,138.108z"/>
	<path fill="#272425" d="M311.49,138.108c-10.5,0-14.64-6.66-14.64-13.74c0-8.28,6.359-13.8,14.34-13.8
		c9.66,0,13.68,6.66,13.68,14.22h-24.6v0.48c0,3.18,1.8,6.42,3.96,7.8c2.28,1.44,4.979,1.8,7.8,1.8s7.5-1.08,12.181-3.72l1.02,3.18
		C321.33,136.488,316.35,138.108,311.49,138.108z M311.19,113.928c-6.78,0-10.32,4.02-10.8,7.56h20.939
		C321.33,119.988,319.47,113.928,311.19,113.928z"/>
	<path fill="#272425" d="M356.009,137.388v-4.56c-2.34,3.48-6.24,5.28-10.5,5.28c-8.761,0-13.381-6.84-13.381-13.8
		c0-7.74,5.521-13.74,13.62-13.74c3.24,0,7.32,0.96,10.261,4.68v-12.18h-8.16v-3.3h11.4v34.32h4.8v3.3H356.009z M345.569,113.868
		c-6,0-10.14,4.92-10.14,10.44c0,5.22,3.54,10.5,10.14,10.5c6,0,10.141-4.38,10.141-10.74
		C355.709,119.928,353.669,113.868,345.569,113.868z"/>
</g>
</svg>
