<?xml version="1.0" encoding="UTF-8" standalone="no"?>
<!-- Created with Inkscape (http://www.inkscape.org/) -->
<svg
   xmlns:svg="http://www.w3.org/2000/svg"
   xmlns="http://www.w3.org/2000/svg"
   version="1.0"
   width="209"
   height="53"
   id="svg2583">
  <defs
     id="defs2585" />
  <g
     transform="translate(-261.21426,-723.00507)"
     id="layer1">
    <g
       transform="translate(0.5,-1.140625)"
       id="g2630">
      <path
         d="M 119.25,6.4375 L 115.65625,7.90625 L 115.65625,13.21875 C 115.72071,14.205106 115.75,15.638608 115.75,17.65625 L 115.75,45.375 C 117.42393,46.50394 119.08168,47.341782 120.6875,47.90625 C 122.29329,48.47071 123.88034,48.750001 125.4375,48.75 C 128.76587,48.75 131.7632,47.522681 134.46875,45.03125 C 137.62194,42.13107 139.21872,38.311789 139.21875,33.5625 C 139.21872,29.49448 138.19997,26.28297 136.15625,23.9375 C 134.11248,21.59208 131.71318,20.40628 128.96875,20.40625 C 125.97123,20.40628 123.18249,22.211629 120.59375,25.8125 L 120.59375,6.4375 L 119.25,6.4375 z M 22.625,7.4375 L 8.6875,40.03125 C 7.7431623,42.270236 6.8757239,43.90972 6.0625,44.96875 L 10.1875,44.96875 C 10.118502,44.777127 10.062497,44.584165 10.0625,44.375 C 10.06249,43.61589 10.4007,42.475179 11.0625,40.9375 L 13.75,34.6875 L 29.0625,34.6875 L 31.46875,40.375 C 32.24729,42.22412 32.624962,43.581068 32.625,44.4375 C 32.624988,44.62374 32.609141,44.798874 32.5625,44.96875 L 39.90625,44.96875 C 39.14374,44.043186 38.333173,42.512117 37.4375,40.375 L 23.65625,7.4375 L 22.625,7.4375 z M 163.59375,7.4375 C 159.91498,7.43754 156.51079,8.3676195 153.40625,10.1875 C 150.30168,12.00744 147.86499,14.5661 146.09375,17.875 C 144.32249,21.18395 143.43749,24.79877 143.4375,28.75 C 143.4375,33.65502 144.78267,37.910902 147.46875,41.53125 C 151.06963,46.39733 156.15927,48.843751 162.71875,48.84375 C 166.35855,48.84375 169.47783,48.041251 172.125,46.40625 C 174.77211,44.77125 177.10835,42.179301 179.09375,38.65625 L 178.1875,38.0625 C 175.83228,41.33251 173.65337,43.525271 171.6875,44.625 C 169.72157,45.72473 167.47551,46.281262 164.90625,46.28125 C 161.94765,46.28126 159.30651,45.58893 157,44.1875 C 154.69347,42.78608 152.96087,40.752679 151.8125,38.125 C 150.6641,35.49733 150.09374,32.39395 150.09375,28.8125 C 150.09374,24.47199 150.68972,20.857171 151.90625,17.9375 C 153.12275,15.01789 154.81588,12.89584 156.9375,11.5625 C 159.05909,10.22923 161.4348,9.5625399 164.0625,9.5625 C 167.19622,9.56254 169.88657,10.44753 172.125,12.21875 C 172.74822,12.711926 173.30049,13.300544 173.84375,13.96875 L 173.84375,10.1875 C 173.83294,10.187658 173.82337,10.187501 173.8125,10.1875 C 173.46211,10.18754 172.87997,9.9907499 172.0625,9.5625 C 169.27908,8.16111 166.45497,7.4375399 163.59375,7.4375 z M 176.0625,8.09375 C 175.91894,8.5098075 175.74778,8.8736475 175.53125,9.1875 C 175.74445,8.8740656 175.92227,8.5093893 176.0625,8.09375 z M 78.09375,8.34375 L 78.09375,13.6875 C 78.12903,14.187484 78.156248,14.730635 78.15625,15.34375 L 78.15625,40.9375 C 78.156247,41.662586 78.141555,42.282858 78.09375,42.84375 L 78.09375,47.9375 L 91.125,47.9375 C 95.58229,47.9375 98.89221,47.51474 101.0625,46.6875 C 103.23274,45.86027 104.94175,44.550451 106.1875,42.75 C 107.43318,40.94956 108.06246,39.05965 108.0625,37.09375 C 108.06246,34.50501 107.10675,32.321981 105.21875,30.53125 C 103.85621,29.24663 101.80693,28.333949 99.0625,27.75 C 101.41765,26.99092 103.19943,25.816899 104.40625,24.25 C 105.613,22.68315 106.21871,20.891629 106.21875,18.90625 C 106.21871,16.59003 105.44389,14.56226 103.90625,12.78125 C 102.36854,11.0003 100.13837,9.7632497 97.21875,9.0625 C 95.29176,8.5954 92.72337,8.34379 89.53125,8.34375 L 78.09375,8.34375 z M 78.09375,13.6875 C 78.059404,13.200751 78.003499,12.785233 77.9375,12.40625 C 78.003275,12.780303 78.060089,13.210461 78.09375,13.6875 z M 89.03125,10.3125 C 92.65159,10.31254 95.393187,11.11504 97.28125,12.75 C 99.16926,14.38503 100.12497,16.371279 100.125,18.6875 C 100.12497,20.18628 99.727829,21.5786 98.96875,22.84375 C 98.20961,24.10896 97.118099,25.043151 95.6875,25.65625 C 94.25685,26.2694 92.123021,26.56252 89.28125,26.5625 C 88.17177,26.56252 87.143287,26.5369 86.21875,26.46875 C 85.29418,26.40065 84.470169,26.29252 83.75,26.15625 L 83.75,10.9375 C 85.30713,10.50932 87.084813,10.31254 89.03125,10.3125 z M 21.53125,16.53125 L 28.25,32.53125 L 14.65625,32.53125 L 21.53125,16.53125 z M 57.875,20.40625 C 54.78017,20.40628 52.3691,21.098599 50.65625,22.5 C 48.94339,23.90145 48.09375,25.45109 48.09375,27.125 C 48.09375,28.00091 48.323831,28.68144 48.78125,29.1875 C 49.23865,29.69359 49.81107,29.96877 50.53125,29.96875 C 51.27089,29.96877 51.886339,29.70538 52.34375,29.21875 C 52.80116,28.73216 53.03124,28.051621 53.03125,27.15625 L 52.96875,25.46875 C 52.96874,24.61235 53.322848,23.849309 54.0625,23.1875 C 54.78267,22.52574 55.773731,22.187531 57,22.1875 C 58.61552,22.18753 59.840779,22.694849 60.6875,23.6875 C 61.53418,24.6802 61.937481,26.48966 61.9375,29.15625 L 61.9375,30.21875 C 57.34391,31.8927 54.069369,33.300908 52.09375,34.46875 C 50.11812,35.63662 48.735531,36.89519 47.9375,38.21875 C 47.35357,39.17251 47.062489,40.28965 47.0625,41.59375 C 47.06249,43.65697 47.646691,45.328571 48.84375,46.59375 C 50.0408,47.85892 51.588391,48.499998 53.4375,48.5 C 54.62481,48.5 55.730171,48.23661 56.78125,47.75 C 57.48195,47.41911 59.193021,46.215359 61.9375,44.09375 C 61.95695,45.68983 62.279268,46.806958 62.84375,47.46875 C 63.4082,48.13053 64.139983,48.468749 65.09375,48.46875 C 65.640641,48.46875 66.219585,48.346547 66.78125,48.125 L 66.78125,38.65625 L 66.78125,29.5625 C 66.78123,26.97377 66.600329,25.27448 66.25,24.4375 C 65.70498,23.15288 64.867122,22.19717 63.71875,21.59375 C 62.20051,20.79574 60.249629,20.40628 57.875,20.40625 z M 196.03125,20.40625 C 192.52767,20.40628 189.53241,21.716089 187.03125,24.34375 C 184.53009,26.97145 183.25,30.389481 183.25,34.59375 C 183.25,38.93429 184.39838,42.387681 186.65625,44.9375 C 188.9141,47.48732 191.55731,48.750001 194.59375,48.75 C 197.14356,48.75 199.46034,47.80402 201.5625,45.90625 C 203.66462,44.00848 205.09231,41.30429 205.8125,37.78125 L 204.96875,37.375 C 203.95658,39.73019 202.91426,41.35464 201.84375,42.25 C 200.32551,43.55411 198.59499,44.218749 196.6875,44.21875 C 194.02088,44.21875 191.91061,42.97403 190.34375,40.53125 C 188.77686,38.08849 188.00001,35.28591 188,32.09375 C 188,28.96002 188.76713,26.438771 190.34375,24.53125 C 191.53106,23.09091 193.11605,22.37502 195.0625,22.375 C 196.26927,22.37502 197.22497,22.666099 197.90625,23.25 C 198.58748,23.85342 198.95542,24.72663 199.0625,25.875 C 199.16954,27.02342 199.38785,27.81002 199.71875,28.21875 C 200.30266,28.95841 201.19533,29.312521 202.34375,29.3125 C 203.20015,29.31252 203.86685,29.08243 204.34375,28.625 C 204.8206,28.1676 205.03122,27.58342 205.03125,26.84375 C 205.03122,25.34503 204.19338,23.89172 202.5,22.5 C 200.80659,21.10833 198.65892,20.40628 196.03125,20.40625 z M 126.65625,24.5625 C 128.60266,24.56253 130.34704,25.473139 131.875,27.3125 C 133.40293,29.15189 134.15622,31.79305 134.15625,35.21875 C 134.15623,38.93644 133.40293,41.77232 131.875,43.71875 C 130.34704,45.66518 128.67748,46.625001 126.90625,46.625 C 125.79677,46.625 124.71704,46.371341 123.65625,45.875 C 122.59544,45.37867 121.58642,44.660722 120.59375,43.6875 L 120.59375,27.6875 C 121.80052,26.51967 122.78392,25.733049 123.5625,25.34375 C 124.5941,24.81823 125.62463,24.56253 126.65625,24.5625 z M 88.9375,28.59375 C 91.72088,28.59377 94.04944,28.995021 95.9375,29.8125 C 97.82551,30.63002 99.194258,31.735381 100.03125,33.15625 C 100.86818,34.57716 101.28122,36.056079 101.28125,37.59375 C 101.28122,39.92947 100.34908,41.913669 98.5,43.5 C 96.65087,45.08635 93.960509,45.87501 90.4375,45.875 C 88.23801,45.87501 86.007849,45.61929 83.75,45.09375 L 83.75,28.84375 C 84.27552,28.74645 84.987307,28.695201 85.84375,28.65625 C 86.70016,28.61734 87.730698,28.593771 88.9375,28.59375 z M 61.9375,32 L 61.9375,42.1875 C 59.52391,44.13394 57.604281,45.093748 56.125,45.09375 C 55.03499,45.09375 54.055711,44.643301 53.21875,43.71875 C 52.38178,42.7942 51.968741,41.620191 51.96875,40.21875 C 51.96874,39.1093 52.306951,38.090541 52.96875,37.15625 C 53.63052,36.22197 54.712321,35.325188 56.25,34.46875 C 57.10642,33.98216 58.998381,33.167879 61.9375,32 z M 66.90625,43.34375 C 66.97922,43.7744 67.100698,44.094512 67.25,44.3125 C 67.105833,44.095352 66.97922,43.7744 66.90625,43.34375 z M 77.9375,43.96875 C 77.892419,44.20263 77.840069,44.438311 77.78125,44.625 C 77.839842,44.434609 77.893112,44.207858 77.9375,43.96875 z M 77.78125,44.625 C 77.697311,44.891418 77.611917,45.110937 77.5,45.28125 C 77.610639,45.112882 77.699867,44.889449 77.78125,44.625 z M 77.5,45.28125 C 77.409976,45.412634 77.292122,45.541289 77.1875,45.65625 C 77.298108,45.535912 77.405495,45.419173 77.5,45.28125 z M 4.9375,46.0625 C 4.5482119,46.274175 3.9937482,46.457122 3.3125,46.625 C 3.9950869,46.453824 4.5468731,46.277474 4.9375,46.0625 z M 42.0625,46.46875 C 42.692734,46.693985 43.41096,46.82634 44.21875,46.875 C 43.41096,46.82634 42.692656,46.690155 42.0625,46.46875 z M 76.0625,46.46875 C 75.617254,46.665825 75.107879,46.794482 74.53125,46.84375 C 75.107922,46.793075 75.617155,46.66904 76.0625,46.46875 z M 12.46875,46.5625 C 13.064702,46.697712 13.774571,46.812023 14.65625,46.875 C 13.786509,46.812876 13.061299,46.691392 12.46875,46.5625 z "
         transform="translate(261.21426,723.00507)"
         style="font-size:59.79431152px;font-style:normal;font-weight:normal;text-align:center;text-anchor:middle;fill:#000000;fill-opacity:1;stroke:none;stroke-width:1px;stroke-linecap:butt;stroke-linejoin:miter;stroke-opacity:1;font-family:Times New Roman"
         id="text2591" />
      <path
         d="M 176.25,7.4375 C 176.03586,8.37182 175.69354,9.0994997 175.1875,9.625 C 174.80623,9.9872077 174.35562,10.180045 173.84375,10.1875 L 173.84375,13.96875 C 175.25164,15.700461 176.41045,17.998983 177.28125,20.90625 L 178.1875,20.90625 L 177.28125,7.4375 L 176.25,7.4375 z M 115.65625,7.90625 L 111.25,9.6875 L 111.65625,10.71875 C 112.47375,10.40736 113.1425,10.25003 113.6875,10.25 C 114.15464,10.25003 114.53231,10.372 114.84375,10.625 C 115.15517,10.87807 115.38527,11.36182 115.53125,12.0625 C 115.58023,12.297611 115.6237,12.720719 115.65625,13.21875 L 115.65625,7.90625 z M 72.4375,8.34375 L 72.4375,9.4375 L 73.9375,9.4375 C 75.43625,9.43753 76.553387,9.8623599 77.3125,10.71875 C 77.735845,11.20052 77.98791,12.187549 78.09375,13.6875 L 78.09375,8.34375 L 72.4375,8.34375 z M 66.78125,38.65625 L 66.78125,48.125 C 68.258547,47.542284 69.764253,46.209134 71.34375,44.09375 L 71.34375,42.4375 C 70.17587,43.60536 69.408728,44.340721 69,44.59375 C 68.76641,44.73 68.467663,44.781251 68.15625,44.78125 C 67.86427,44.78125 67.63006,44.694651 67.40625,44.5 C 67.18239,44.30536 67.003543,43.91795 66.90625,43.34375 C 66.8089,42.76956 66.781231,41.206081 66.78125,38.65625 z M 78.09375,42.78125 C 77.997301,43.971974 77.807062,44.813971 77.5,45.28125 C 76.77981,46.33232 75.591962,46.875001 73.9375,46.875 L 72.4375,46.875 L 72.4375,47.9375 L 78.09375,47.9375 L 78.09375,42.78125 z M 6.0625,44.96875 C 5.8364871,45.263078 5.6221356,45.515563 5.40625,45.71875 C 4.91963,46.1859 3.8419601,46.583041 2.1875,46.875 L 2.1875,47.9375 L 14.65625,47.9375 L 14.65625,46.875 C 12.74874,46.73875 11.51169,46.426158 10.9375,45.96875 C 10.562346,45.669901 10.317544,45.329913 10.1875,44.96875 L 6.0625,44.96875 z M 32.5625,44.96875 C 32.448282,45.384758 32.206365,45.744624 31.8125,46.0625 C 31.25773,46.51018 30.20158,46.797151 28.625,46.875 L 28.625,47.9375 L 44.21875,47.9375 L 44.21875,46.875 C 42.60317,46.77768 41.342548,46.319551 40.4375,45.53125 C 40.263108,45.379364 40.088226,45.18964 39.90625,44.96875 L 32.5625,44.96875 z "
         transform="translate(261.21426,723.00507)"
         style="fill:#ff0000;fill-opacity:1;stroke:none;stroke-width:3.60100007;stroke-linecap:round;stroke-linejoin:round;stroke-miterlimit:4;stroke-dashoffset:0;stroke-opacity:1"
         id="rect2605" />
    </g>
  </g>
</svg>
