<?xml version="1.0" encoding="UTF-8" standalone="no"?>
<!-- Created with Inkscape (http://www.inkscape.org/) -->
<svg
   xmlns:dc="http://purl.org/dc/elements/1.1/"
   xmlns:cc="http://web.resource.org/cc/"
   xmlns:rdf="http://www.w3.org/1999/02/22-rdf-syntax-ns#"
   xmlns:svg="http://www.w3.org/2000/svg"
   xmlns="http://www.w3.org/2000/svg"
   xmlns:sodipodi="http://sodipodi.sourceforge.net/DTD/sodipodi-0.dtd"
   xmlns:inkscape="http://www.inkscape.org/namespaces/inkscape"
   width="388"
   height="166"
   id="svg2"
   sodipodi:version="0.32"
   inkscape:version="0.44.1"
   sodipodi:docbase="G:\Dokumente und Einstellungen\Tonio\Desktop"
   sodipodi:docname="M_versus_em.svg"
   version="1.0">
  <defs
     id="defs4" />
  <sodipodi:namedview
     id="base"
     pagecolor="#ffffff"
     bordercolor="#666666"
     borderopacity="1.0"
     gridtolerance="10000"
     guidetolerance="10"
     objecttolerance="10"
     inkscape:pageopacity="0.0"
     inkscape:pageshadow="2"
     inkscape:zoom="1"
     inkscape:cx="194"
     inkscape:cy="83"
     inkscape:document-units="pt"
     inkscape:current-layer="layer1"
     inkscape:window-width="1280"
     inkscape:window-height="968"
     inkscape:window-x="-4"
     inkscape:window-y="-4" />
  <metadata
     id="metadata7">
    <rdf:RDF>
      <cc:Work
         rdf:about="">
        <dc:format>image/svg+xml</dc:format>
        <dc:type
           rdf:resource="http://purl.org/dc/dcmitype/StillImage" />
      </cc:Work>
    </rdf:RDF>
  </metadata>
  <g
     inkscape:label="Layer 1"
     inkscape:groupmode="layer"
     id="layer1"
     transform="translate(-13,-46.36218)">
    <rect
       id="rect1880"
       width="145.59019"
       height="145.59021"
       x="24.894266"
       y="56.266453"
       style="fill:none;stroke:blue;stroke-width:1.01104307;stroke-miterlimit:4;stroke-dasharray:none;stroke-opacity:1" />
    <rect
       style="fill:none;stroke:blue;stroke-width:1.01104307;stroke-miterlimit:4;stroke-dasharray:none;stroke-opacity:1"
       y="56.266453"
       x="242.63052"
       height="145.59021"
       width="145.59019"
       id="rect3667" />
    <path
       transform="translate(8.802807,55.53342)"
       style="font-size:144px;font-family:Perpetua"
       d="M 94.335938,32.289861 L 113.8125,32.289861 L 113.8125,34.680486 C 107.6249,34.821191 104.53116,38.477437 104.53125,45.649236 C 104.53116,46.258679 104.55459,46.891491 104.60156,47.547673 L 108.75,98.383611 C 109.21865,103.77425 110.14443,107.36018 111.52734,109.14142 C 112.91006,110.92268 115.40615,111.97736 119.01563,112.30549 L 119.01563,114.76642 L 89.34375,114.76642 L 89.34375,112.30549 C 92.484295,111.78986 94.699136,110.75861 95.988281,109.21174 C 97.277258,107.66487 97.921789,105.29768 97.921875,102.11017 C 97.921789,101.45394 97.898352,100.72737 97.851563,99.930486 L 93.492188,46.633611 L 65.296875,114.76642 L 63.117188,114.76642 L 35.203125,46.633611 L 30.5625,97.469548 C 30.515606,98.26644 30.492169,99.016439 30.492188,99.719548 C 30.492169,106.79768 34.078103,110.99299 41.25,112.30549 L 41.25,114.76642 L 15.585938,114.76642 L 15.585938,112.30549 C 19.007805,111.83674 21.480459,110.64143 23.003906,108.71955 C 24.527331,106.79768 25.570299,102.95394 26.132813,97.188298 L 31.125,40.446111 C 28.218734,37.305563 24.6328,35.38369 20.367188,34.680486 L 20.367188,32.289861 L 41.25,32.289861 L 67.617188,97.188298 L 94.335938,32.289861 z "
       id="flowRoot1874" />
    <path
       transform="translate(13.5625,48.50271)"
       style="font-size:144px;font-style:normal;font-variant:normal;font-weight:normal;font-stretch:normal;text-align:start;line-height:125%;writing-mode:lr-tb;text-anchor:start;font-family:Calisto MT"
       d="M 228.5625,34.820569 L 228.5625,30.672131 C 236.39062,31.187855 242.34374,31.445667 246.42188,31.445569 C 251.06248,31.445667 256.05466,31.187855 261.39844,30.672131 C 263.32028,35.5941 264.86715,39.344096 266.03906,41.922131 C 267.5859,45.390965 273.70308,58.53939 284.39063,81.367444 C 288.93744,91.070607 293.53118,100.53935 298.17188,109.77369 L 328.19531,46.633069 C 330.02334,42.742531 332.20302,37.422223 334.73438,30.672131 C 341.01551,31.187855 345.82019,31.445667 349.14844,31.445569 C 352.24206,31.445667 357.46862,31.187855 364.82813,30.672131 L 364.82813,34.820569 C 363.42174,35.195663 362.36705,35.453475 361.66406,35.594006 C 355.14831,36.906599 351.5155,37.867535 350.76563,38.476819 C 349.54675,39.414409 348.93738,41.781594 348.9375,45.578381 L 348.9375,46.492444 L 348.65625,68.781506 C 348.65613,96.812789 348.77332,113.8284 349.00781,119.82838 C 349.05457,121.09401 349.41785,122.03151 350.09766,122.64088 C 350.77722,123.25026 354.77331,124.25807 362.08594,125.66432 C 362.69518,125.75807 363.60924,125.96901 364.82813,126.29713 L 364.82813,130.44557 C 356.3905,129.92994 348.96082,129.67213 342.53906,129.67213 C 335.97645,129.67213 328.21865,129.92994 319.26563,130.44557 L 319.26563,126.29713 C 321.09366,125.82838 322.47647,125.50026 323.41406,125.31276 C 329.13271,124.23464 332.40224,123.47292 333.22266,123.0276 C 334.04286,122.58229 334.59364,121.9612 334.875,121.16432 C 335.29677,119.80495 335.5077,116.00808 335.50781,109.77369 L 335.50781,48.390881 C 331.24208,56.828454 321.60928,77.148746 306.60938,109.35182 C 302.4843,118.21121 299.43743,124.98464 297.46875,129.67213 L 293.46094,129.67213 C 282.96088,106.37528 270.09371,79.281557 254.85938,48.390881 L 255.77344,113.92213 C 255.77341,119.12527 256.19528,122.10183 257.03906,122.85182 C 257.88278,123.60182 261.42184,124.51589 267.65625,125.59401 C 268.35933,125.73464 269.43746,125.96901 270.89063,126.29713 L 270.89063,130.44557 C 262.78122,129.92994 256.21872,129.67213 251.20313,129.67213 C 246.18748,129.67213 239.55468,129.92994 231.30469,130.44557 L 231.30469,126.29713 C 232.66406,125.92213 233.67187,125.68776 234.32813,125.59401 C 240.51561,124.37526 243.98436,123.32057 244.73438,122.42994 C 245.85936,121.11745 246.44529,117.90652 246.49219,112.79713 L 246.84375,96.976819 C 247.07811,82.539366 247.19529,68.547192 247.19531,55.000256 L 247.125,46.422131 C 247.12498,43.000343 246.91404,40.855814 246.49219,39.988537 C 246.07029,39.12144 245.39061,38.500347 244.45313,38.125256 C 242.67186,37.422223 238.68749,36.601912 232.5,35.664319 C 231.60937,35.523788 230.29687,35.242538 228.5625,34.820569 L 228.5625,34.820569 z "
       id="flowRoot1882" />
  </g>
</svg>
