<?xml version="1.0" encoding="utf-8"?>
<!-- Generator: Adobe Illustrator 14.0.0, SVG Export Plug-In . SVG Version: 6.00 Build 43363)  -->
<!DOCTYPE svg PUBLIC "-//W3C//DTD SVG 1.1//EN" "http://www.w3.org/Graphics/SVG/1.1/DTD/svg11.dtd">
<svg version="1.1" id="Layer_1" xmlns="http://www.w3.org/2000/svg" xmlns:xlink="http://www.w3.org/1999/xlink" x="0px" y="0px"
	 width="557px" height="284px" viewBox="0 0 557 284" enable-background="new 0 0 557 284" xml:space="preserve">
<g id="Layer_7">
</g>
<path fill="#993333" d="M36.172,201.534c0,6.05,0,12.096,0,18.144c-1.521,0-3.042,0-4.565,0c0.127-5.994-0.252-12.42,0.19-18.144
	C33.254,201.534,34.713,201.534,36.172,201.534z"/>
<path fill="#993333" d="M43.4,201.534c0,4.103,0,8.208,0,12.313c-1.165,0.355-3.09,0.068-4.565,0.16c0-4.158,0-8.316,0-12.474
	C40.356,201.534,41.877,201.534,43.4,201.534z"/>
<path fill="#993333" d="M50.818,201.534c0,5.993,0,11.989,0,17.981c-1.228,0.359-3.218,0.068-4.754,0.162
	c0.125-5.994-0.255-12.42,0.189-18.144C47.774,201.534,49.298,201.534,50.818,201.534z"/>
<path fill="#993333" d="M72.508,201.531c0,1.25,0,2.5,0,3.721c-3.946,0-7.869,0-11.791,0c-0.431-0.938-0.096-2.527-0.191-3.721
	C64.52,201.531,68.514,201.531,72.508,201.531z"/>
<path fill="#666766" d="M57.855,207.202c0,4.104,0,8.21,0,12.313c-1.458,0-2.915,0-4.377,0c0-4.104,0-8.207,0-12.313
	C54.94,207.202,56.397,207.202,57.855,207.202z"/>
<path fill="#993333" d="M65.273,207.202c0,4.159,0,8.317,0,12.476c-1.521,0-3.043,0-4.564,0c0-4.158,0-8.316,0-12.476
	C62.23,207.202,63.752,207.202,65.273,207.202z"/>
<path fill="#666766" d="M108.806,201.447l-6.08,18.201H97.22l-3.205-9.612l-3.207,9.612h-5.504l-6.102-18.201h5.792l3.051,10.611
	l3.073-10.611h5.771l3.073,10.611l3.073-10.611H108.806z"/>
<path fill="#666766" d="M122.999,206.561h-7.141c-0.575,0-0.862,0.265-0.862,0.795c0,0.59,0.323,0.886,0.972,0.886h6.987v5.362
	h-7.495c-0.442,0-0.664,0.224-0.664,0.67c0,0.508,0.222,0.762,0.664,0.762h7.495v4.658h-9.64c-0.869,0-1.65-0.439-2.344-1.316
	c-0.663-0.832-0.994-1.71-0.994-2.634v-10.235c0-1.134,0.35-2.08,1.05-2.836c0.7-0.756,1.596-1.134,2.687-1.134H123L122.999,206.561
	L122.999,206.561z"/>
<path fill="#666766" d="M139.402,213.604c0,0.121-0.008,0.312-0.022,0.567c-0.016,0.259-0.022,0.448-0.022,0.568
	c0,3.348-1.85,5.021-5.55,5.021h-8.622V201.4h8.622c3.7,0,5.55,1.668,5.55,5c0,0.121,0.007,0.312,0.022,0.568
	c0.014,0.258,0.022,0.447,0.022,0.567c0,2.045-0.796,3.062-2.388,3.045C138.606,210.598,139.402,211.604,139.402,213.604z
	 M134.206,207.219c0-0.227-0.081-0.417-0.241-0.568c-0.163-0.15-0.346-0.228-0.549-0.228h-2.706c-0.5,0-0.748,0.267-0.748,0.796
	c0,0.213,0.072,0.401,0.219,0.567c0.147,0.168,0.323,0.251,0.529,0.251h2.706c0.19,0,0.37-0.083,0.538-0.251
	C134.123,207.62,134.206,207.432,134.206,207.219z M134.206,213.921c0-0.196-0.083-0.382-0.252-0.556
	c-0.168-0.174-0.348-0.262-0.538-0.262h-2.706c-0.206,0-0.382,0.082-0.529,0.25s-0.219,0.355-0.219,0.567
	c0,0.228,0.069,0.42,0.208,0.58c0.14,0.159,0.319,0.238,0.54,0.238h2.706c0.204,0,0.387-0.079,0.549-0.238
	C134.125,214.342,134.206,214.148,134.206,213.921z"/>
<path fill="#666766" d="M166.153,207.786c0,3.272-1.871,4.907-5.616,4.907h-4.023v7.067h-4.599V201.4h8.622c3.7,0,5.55,1.668,5.55,5
	c0,0.151,0.011,0.384,0.032,0.693C166.142,207.405,166.153,207.635,166.153,207.786z M160.936,207.219
	c0-0.227-0.078-0.417-0.232-0.568c-0.155-0.15-0.342-0.228-0.564-0.228h-2.719c-0.207,0-0.379,0.081-0.519,0.239
	c-0.14,0.158-0.21,0.345-0.21,0.557c0,0.213,0.073,0.401,0.222,0.567c0.147,0.168,0.316,0.251,0.508,0.251h2.719
	c0.222,0,0.409-0.083,0.564-0.251C160.858,207.62,160.936,207.432,160.936,207.219z"/>
<path fill="#666766" d="M181.806,219.762h-5.152l-3.979-7.816h-0.553v7.816h-4.599v-18.359h8.623c3.699,0,5.549,1.666,5.549,5
	c0.029,0.258,0.044,0.545,0.044,0.863c0,1.349-0.213,2.477-0.641,3.385c-0.546,1.168-1.387,1.848-2.521,2.045L181.806,219.762z
	 M176.545,207.219c0-0.227-0.082-0.417-0.244-0.568c-0.163-0.15-0.347-0.228-0.552-0.228h-3.626v1.614h3.626
	c0.206,0,0.39-0.083,0.552-0.251C176.463,207.62,176.545,207.432,176.545,207.219z"/>
<path fill="#666766" d="M197.702,215.535c0,1.181-0.395,2.179-1.183,2.988c-0.79,0.81-1.757,1.215-2.907,1.215h-5.992
	c-1.135,0-2.1-0.405-2.896-1.215c-0.796-0.811-1.194-1.808-1.194-2.988v-9.861c0-1.181,0.398-2.189,1.194-3.021
	s1.761-1.25,2.896-1.25h5.992c1.15,0,2.118,0.416,2.907,1.25c0.788,0.832,1.183,1.841,1.183,3.021V215.535z M192.993,213.672v-6.135
	c0-0.363-0.118-0.678-0.354-0.943c-0.236-0.265-0.53-0.397-0.885-0.397h-1.834c-0.368,0-0.674,0.129-0.917,0.387
	c-0.244,0.258-0.365,0.576-0.365,0.954v6.135c0,0.379,0.125,0.696,0.376,0.954c0.25,0.258,0.552,0.386,0.906,0.386h1.834
	c0.355,0,0.649-0.132,0.885-0.396C192.875,214.35,192.993,214.035,192.993,213.672z"/>
<path fill="#666766" d="M213.178,206.561h-8.004v8.475h3.36v-1.432h-2.719v-5.362h7.296v11.452h-9.618
	c-0.885,0-1.672-0.439-2.366-1.316c-0.663-0.832-0.995-1.71-0.995-2.634v-10.235c0-1.119,0.354-2.061,1.061-2.824
	c0.707-0.765,1.606-1.146,2.697-1.146h9.287L213.178,206.561L213.178,206.561z"/>
<path fill="#666766" d="M229.672,219.762h-5.152l-3.979-7.816h-0.553v7.816h-4.599v-18.359h8.623c3.699,0,5.549,1.666,5.549,5
	c0.029,0.258,0.044,0.545,0.044,0.863c0,1.349-0.213,2.477-0.641,3.385c-0.546,1.168-1.387,1.848-2.521,2.045L229.672,219.762z
	 M224.41,207.219c0-0.227-0.082-0.417-0.244-0.568c-0.163-0.15-0.347-0.228-0.552-0.228h-3.626v1.614h3.626
	c0.206,0,0.39-0.083,0.552-0.251C224.328,207.62,224.41,207.432,224.41,207.219z"/>
<path fill="#666766" d="M248.329,219.648h-5.792l-3.051-10.703l-3.073,10.703h-5.771l6.08-18.291h5.507L248.329,219.648z"/>
<path fill="#666766" d="M272.893,219.762h-4.887v-12.179c0-0.591-0.197-0.97-0.594-1.136c-0.208-0.092-0.685-0.137-1.437-0.137
	c-0.666,0-1.143,0.054-1.44,0.16c-0.516,0.197-0.773,0.568-0.773,1.116v12.175h-5.106v-12.175c0-0.548-0.25-0.919-0.752-1.116
	c-0.311-0.106-0.796-0.16-1.459-0.16c-0.724,0-1.204,0.045-1.437,0.137c-0.399,0.167-0.599,0.545-0.599,1.136v12.179h-4.884V206.65
	c0-1.516,0.374-2.728,1.129-3.635c0.807-0.985,1.93-1.478,3.359-1.478h14.393c1.445,0,2.563,0.492,3.361,1.478
	c0.749,0.907,1.126,2.119,1.126,3.635V219.762L272.893,219.762z"/>
<path fill="#666766" d="M298.494,219.762h-4.887v-12.179c0-0.591-0.197-0.97-0.598-1.136c-0.205-0.092-0.685-0.137-1.434-0.137
	c-0.666,0-1.146,0.054-1.439,0.16c-0.516,0.197-0.773,0.568-0.773,1.116v12.175h-5.106v-12.175c0-0.548-0.252-0.919-0.752-1.116
	c-0.308-0.106-0.796-0.16-1.459-0.16c-0.724,0-1.2,0.045-1.437,0.137c-0.399,0.167-0.6,0.545-0.6,1.136v12.179h-4.885V206.65
	c0-1.516,0.375-2.728,1.129-3.635c0.807-0.985,1.928-1.478,3.359-1.478h14.393c1.445,0,2.564,0.492,3.359,1.478
	c0.751,0.907,1.129,2.119,1.129,3.635V219.762L298.494,219.762z"/>
<path fill="#666766" d="M305.479,219.762h-4.597v-18.359h4.597V219.762z"/>
<path fill="#666766" d="M322.194,219.762h-4.888v-12.179c0-0.591-0.199-0.97-0.597-1.136c-0.222-0.092-0.699-0.137-1.437-0.137
	c-0.666,0-1.151,0.054-1.459,0.16c-0.503,0.197-0.753,0.568-0.753,1.116v12.175h-5.105v-18.223h9.75
	c1.444,0,2.565,0.492,3.358,1.477c0.752,0.908,1.129,2.12,1.129,3.635L322.194,219.762L322.194,219.762z"/>
<path fill="#666766" d="M337.494,206.561h-8.005v8.475h3.358v-1.432h-2.719v-5.362h7.295v11.452h-9.616
	c-0.885,0-1.673-0.439-2.365-1.316c-0.663-0.832-0.993-1.71-0.993-2.634v-10.235c0-1.119,0.353-2.061,1.06-2.824
	c0.708-0.765,1.606-1.146,2.696-1.146h9.289V206.561L337.494,206.561z"/>
<path fill="#666766" d="M363.14,219.738h-8.956c-1.075,0-1.959-0.266-2.651-0.795c-0.769-0.59-1.15-1.416-1.15-2.477v-11.701
	c0-1.015,0.392-1.848,1.173-2.5c0.735-0.591,1.611-0.886,2.63-0.886h8.956v4.84h-6.7c-0.898,0-1.35,0.546-1.35,1.636v5.112
	c0,0.925,0.393,1.386,1.174,1.386h6.876L363.14,219.738L363.14,219.738z"/>
<path fill="#666766" d="M379.08,215.535c0,1.181-0.396,2.179-1.186,2.988c-0.791,0.81-1.759,1.215-2.906,1.215h-5.991
	c-1.134,0-2.104-0.405-2.898-1.215c-0.793-0.811-1.191-1.808-1.191-2.988v-9.861c0-1.181,0.398-2.189,1.191-3.021
	c0.796-0.832,1.766-1.25,2.898-1.25h5.991c1.147,0,2.115,0.416,2.906,1.25c0.788,0.832,1.186,1.841,1.186,3.021V215.535z
	 M374.37,213.672v-6.135c0-0.363-0.119-0.678-0.355-0.943c-0.234-0.265-0.528-0.397-0.885-0.397h-1.836
	c-0.366,0-0.674,0.129-0.915,0.387c-0.244,0.258-0.363,0.576-0.363,0.954v6.135c0,0.379,0.122,0.696,0.374,0.954
	c0.25,0.258,0.553,0.386,0.904,0.386h1.836c0.355,0,0.649-0.132,0.885-0.396C374.251,214.35,374.37,214.035,374.37,213.672z"/>
<path fill="#666766" d="M404.855,219.762h-4.888v-12.179c0-0.591-0.196-0.97-0.594-1.136c-0.208-0.092-0.686-0.137-1.439-0.137
	c-0.662,0-1.141,0.054-1.438,0.16c-0.516,0.197-0.773,0.568-0.773,1.116v12.175h-5.105v-12.175c0-0.548-0.25-0.919-0.752-1.116
	c-0.312-0.106-0.796-0.16-1.459-0.16c-0.722,0-1.203,0.045-1.438,0.137c-0.398,0.167-0.599,0.545-0.599,1.136v12.179h-4.885V206.65
	c0-1.516,0.374-2.728,1.126-3.635c0.813-0.985,1.934-1.478,3.361-1.478h14.394c1.443,0,2.563,0.492,3.36,1.478
	c0.749,0.907,1.126,2.119,1.126,3.635v13.111H404.855z"/>
<path fill="#666766" d="M420.596,207.786c0,3.272-1.869,4.907-5.612,4.907h-4.024v7.067h-4.6V201.4h8.624
	c3.696,0,5.547,1.668,5.547,5c0,0.151,0.012,0.384,0.032,0.693C420.585,207.405,420.596,207.635,420.596,207.786z M415.379,207.219
	c0-0.227-0.078-0.417-0.229-0.568c-0.158-0.15-0.345-0.228-0.565-0.228h-2.722c-0.205,0-0.377,0.081-0.52,0.239
	c-0.139,0.158-0.21,0.345-0.21,0.557c0,0.213,0.074,0.401,0.223,0.567c0.148,0.168,0.317,0.251,0.507,0.251h2.722
	c0.222,0,0.407-0.083,0.565-0.251C415.301,207.62,415.379,207.432,415.379,207.219z"/>
<path fill="#666766" d="M435.103,206.561h-7.143c-0.574,0-0.862,0.265-0.862,0.795c0,0.59,0.324,0.886,0.972,0.886h6.988v5.362
	h-7.493c-0.443,0-0.666,0.224-0.666,0.67c0,0.508,0.223,0.762,0.666,0.762h7.493v4.658h-9.641c-0.868,0-1.65-0.439-2.344-1.316
	c-0.663-0.832-0.996-1.71-0.996-2.634v-10.235c0-1.134,0.353-2.08,1.052-2.836c0.698-0.756,1.598-1.134,2.688-1.134h9.286
	L435.103,206.561L435.103,206.561z"/>
<path fill="#666766" d="M455.106,206.742h-6.94v12.951h-4.688v-12.951h-6.941v-5.363h7.847c0.577,0,1.109,0.083,1.596,0.25
	c0.309-0.167,0.737-0.25,1.281-0.25h7.848L455.106,206.742L455.106,206.742z"/>
<path fill="#666766" d="M461.363,219.762h-4.6v-18.359h4.6V219.762z"/>
<path fill="#666766" d="M481.569,206.742h-6.939v12.951h-4.688v-12.951H463v-5.363h7.847c0.577,0,1.109,0.083,1.596,0.25
	c0.309-0.167,0.734-0.25,1.28-0.25h7.848L481.569,206.742L481.569,206.742z"/>
<path fill="#666766" d="M487.827,219.762h-4.596v-18.359h4.596V219.762z"/>
<path fill="#666766" d="M521.078,219.762h-4.885v-12.179c0-0.591-0.199-0.97-0.6-1.136c-0.22-0.092-0.699-0.137-1.437-0.137
	c-0.663,0-1.148,0.054-1.457,0.16c-0.505,0.197-0.754,0.568-0.754,1.116v12.175h-5.106v-18.223h9.749
	c1.445,0,2.566,0.492,3.359,1.477c0.754,0.908,1.129,2.12,1.129,3.635L521.078,219.762L521.078,219.762z"/>
<path fill="#666766" d="M504.503,215.659c0,1.182-0.396,2.179-1.185,2.989c-0.791,0.81-1.76,1.215-2.907,1.215h-5.991
	c-1.134,0-2.103-0.405-2.898-1.215c-0.793-0.811-1.191-1.808-1.191-2.989v-9.86c0-1.182,0.398-2.189,1.191-3.021
	c0.797-0.834,1.766-1.252,2.898-1.252h5.991c1.147,0,2.116,0.418,2.907,1.252c0.787,0.832,1.185,1.84,1.185,3.021V215.659z
	 M499.793,213.797v-6.135c0-0.364-0.119-0.678-0.355-0.943c-0.234-0.265-0.528-0.397-0.885-0.397h-1.836
	c-0.366,0-0.674,0.129-0.915,0.387c-0.244,0.258-0.362,0.576-0.362,0.955v6.135c0,0.378,0.121,0.696,0.373,0.954
	c0.25,0.258,0.553,0.385,0.904,0.385h1.836c0.355,0,0.649-0.131,0.885-0.396C499.674,214.475,499.793,214.16,499.793,213.797z"/>
<path fill="#993333" d="M53.123,201.498c1.602,0,3.181,0,4.759,0c0,1.25,0,2.5,0,3.721c-1.579,0-3.157,0-4.759,0
	C53.123,203.997,53.123,202.748,53.123,201.498z"/>
<g id="Layer_1_1_">
	<path fill="#666766" d="M462.435,70.948c-0.838-1.104-1.688-2.17-2.561-3.17c1.409-1.072,2.773-2.246,4.097-3.52
		c8.312,5.125,15.387,12.049,20.703,20.223c-0.719,0.355-1.512,0.716-2.353,1.079c1.712,1.393,3.434,2.785,5.063,4.187
		c0.096-0.049,0.208-0.096,0.304-0.145c0.131,0.246,0.243,0.501,0.371,0.749c1.997,1.732,3.955,3.47,5.816,5.213
		c1.539,1.434,2.968,2.884,4.371,4.338c-8.765-29.625-36.208-51.308-68.635-51.308c-2.077,0-4.127,0.108-6.163,0.283
		C437.557,55.623,450.641,63.077,462.435,70.948z M458.537,61.254c-0.898,0.792-1.833,1.517-2.782,2.207
		c-2.599-2.473-5.223-4.562-7.749-6.3C451.658,58.229,455.179,59.599,458.537,61.254z"/>
	<path fill="#666766" d="M454.987,127.823c-1.825,1.608-3.864,3.232-6.143,4.866c-0.144,2.555-0.33,5.016-0.567,7.328
		c-3.192-0.399-6.431-0.66-9.672-0.863c-0.803,0.451-1.596,0.903-2.437,1.353c-2.973,1.593-5.988,3.047-9.009,4.371v16.19
		c2.009-1.332,3.979-2.658,5.922-3.979V144.77c4.859,0.146,9.725,0.547,14.457,1.148c-0.063,0.416-0.137,0.789-0.2,1.191
		c2.843-2.051,5.556-4.045,8.177-5.995c-0.458-0.081-0.897-0.175-1.363-0.249C454.573,136.865,454.84,132.481,454.987,127.823z"/>
	<path fill="#666766" d="M477.273,117.439c-0.202-7.194-1.085-13.625-2.438-19.426c-2.859-2.404-5.86-4.805-9.039-7.195
		c-3.672,0.896-7.595,1.711-11.702,2.403c0.437,0.049,0.882,0.072,1.308,0.14c0.599,0.094,1.176,0.221,1.74,0.365
		c0.354,0.075,0.64,0.191,0.973,0.28c0.109,0.036,0.229,0.066,0.341,0.104c2.433,0.708,4.314,1.778,5.45,3.269
		c1.512-0.334,3.048-0.659,4.489-1.022c1.662,6.116,2.725,13.104,2.961,21.082h-7.45c-1.192,1.919-2.704,3.899-4.556,5.924h12.021
		c-0.05,2.01-0.161,3.939-0.313,5.823c2.229-1.764,4.296-3.425,6.19-4.963c0.015-0.286,0.033-0.564,0.042-0.86h1.013
		c2.815-2.298,5.203-4.29,7.135-5.924H477.273L477.273,117.439z"/>
	<path fill="#666766" d="M362.781,140.681c1.188,0.034,2.71,0.06,4.529,0.057c-1.827-5.51-2.977-11.328-3.268-17.375h17.027
		c0.166,6.075,0.843,11.608,1.901,16.674c1.906-0.169,3.875-0.376,5.896-0.628c-1.037-4.843-1.706-10.162-1.875-16.046h7.905
		c0.563-1.804,1.556-3.787,2.986-5.924h-10.897c0.217-7.944,1.28-14.916,2.974-21.011c3.653,0.964,7.583,1.828,11.749,2.553
		c-0.555,4.516-0.918,9.476-1.099,14.822c1.78-2.105,3.973-4.03,6.214-5.719c0.192-2.871,0.438-5.625,0.757-8.203
		c3.592,0.485,7.345,0.817,11.164,1.064c0.086-0.041,0.133-0.061,0.133-0.061s6.929-3.273,15.752-5.608
		c-0.516,0.033-1.029,0.071-1.548,0.086V76.766c3.548-0.165,6.859-0.589,9.958-1.274c1.65,4.757,3.114,10.584,4.213,17.606
		c2.024-0.133,4.027-0.135,5.972,0.03c-0.771-5.079-1.747-9.555-2.843-13.567c-4.668-3.014-9.586-5.998-14.765-8.937
		c-0.838,0.082-1.661,0.175-2.535,0.22v-1.638c-1.938-1.078-3.913-2.149-5.922-3.215v4.901c-4.041-0.12-7.747-0.545-11.133-1.301
		c1.461-2.852,2.956-5.179,4.391-7.092c-2.028-1.022-4.08-2.039-6.172-3.046c-1.237-0.595-2.49-1.164-3.733-1.745
		c-2.564,1.744-5.206,3.785-7.811,6.224c-0.996-0.696-1.967-1.427-2.888-2.231c3.286-1.682,6.754-3.049,10.331-4.163
		c-2.567-1.195-5.146-2.362-7.74-3.496c-25.997,10.735-44.365,36.299-44.365,66.127c0,6.951,1.016,13.666,2.871,20.026
		C361.495,140.397,362.149,140.527,362.781,140.681z M427.161,76.814V95.4c-6.493-0.09-12.8-0.59-18.738-1.392
		c1.292-7.632,3.092-13.845,5.099-18.885C417.643,76.139,422.193,76.679,427.161,76.814z M412.838,63.016
		c-0.893,1.469-1.78,3.088-2.646,4.865c-0.785-0.301-1.528-0.648-2.277-0.992C409.565,65.435,411.213,64.156,412.838,63.016z
		 M403.427,71.338c1.401,0.745,2.862,1.411,4.383,2.003c-2.089,5.374-3.928,11.892-5.247,19.771
		c-3.822-0.67-7.429-1.461-10.778-2.333C394.807,82.64,398.95,76.284,403.427,71.338z M394.471,64.762
		c1.293,1.251,2.646,2.408,4.069,3.459c-4.787,5.414-9.179,12.292-12.379,20.941c-4.665-1.481-8.596-3.102-11.566-4.742
		C379.737,76.532,386.524,69.819,394.471,64.762z M371.585,89.517c3.323,1.846,7.637,3.65,12.729,5.274
		c-1.861,6.589-3.023,14.112-3.245,22.648h-17.033C364.448,107.388,367.131,97.917,371.585,89.517z"/>
	<path fill="#666766" d="M409.288,151.333c-1.947,0.579-3.864,1.108-5.747,1.599c1.146,5.33,2.535,9.975,4.083,13.943
		c-1.442,0.566-2.829,1.191-4.164,1.896c-3.389-3.703-6.573-8.232-9.241-13.683c-2.047,0.418-4.021,0.789-5.898,1.111
		c2.905,6.229,6.439,11.433,10.245,15.692c-1.48,1.09-2.883,2.295-4.225,3.604c-7.198-4.607-13.364-10.633-18.284-17.602
		c-3.165,0.325-5.515,0.479-6.825,0.547c6.058,9.521,14.254,17.549,23.973,23.314c2.977-1.656,5.919-3.332,8.82-5.029
		c0.247-0.182,0.475-0.391,0.727-0.566c0.033,0.031,0.066,0.059,0.101,0.089c7.137-4.19,14.019-8.476,20.608-12.749v-0.001
		c-3.623,0.261-7.004,0.767-10.13,1.549C411.801,161.223,410.42,156.648,409.288,151.333z"/>
	<path fill="#666766" d="M406.964,135.216c-0.017-0.2-0.028-0.412-0.042-0.612c-2.291,0.038-4.302-0.146-5.981-0.564
		c0.065,0.957,0.122,1.936,0.201,2.86C403.044,136.378,404.98,135.823,406.964,135.216z"/>
	<path fill="#666766" d="M441.851,119.092c0.702-0.549,1.356-1.101,1.968-1.653h-1.18
		C442.441,117.993,442.181,118.543,441.851,119.092z"/>
	<path fill="#666766" d="M431.152,110.294c0.589-0.182,1.248-0.326,1.931-0.417v-2.1c-1.101,0.244-2.202,0.532-3.284,0.864
		c-0.837,0.257-1.725,0.58-2.638,0.947v2.51C428.359,111.411,429.722,110.742,431.152,110.294z"/>
	<path fill="#666766" d="M410.728,120.902c2.936,0.247,6.87-0.254,10.614-1.372c-0.011-0.817,0.188-1.494,0.511-2.091h-8.067
		C412.173,118.764,411.038,119.985,410.728,120.902z"/>
	<path fill="#666766" d="M493.93,133.009c-1.236,6.205-3.298,12.118-6.157,17.563c-2.797-1.444-6.371-2.862-10.442-4.202
		c-5.42,4.299-10.377,8.146-13.536,10.405c-0.024,0.018-0.053,0.037-0.077,0.056c-2.472,4.926-5.337,9.088-8.385,12.487
		c-1.941-1.114-3.975-2.064-6.104-2.863c-0.727,0.466-1.464,0.936-2.207,1.411c-2.508,1.801-5.028,3.604-7.642,5.418
		c-2.225,4.188-4.463,7.046-6.297,8.907v-4.612c-1.952,1.313-3.928,2.62-5.922,3.919v2.76c-0.104-0.035-0.226-0.078-0.333-0.115
		c-0.493-0.343-1.073-0.803-1.691-1.322c-3.729,2.402-7.524,4.771-11.369,7.084c5.108,1.162,10.396,1.84,15.847,1.84
		c37.021,0,67.533-28.262,71.178-64.337C498.872,128.979,496.522,130.898,493.93,133.009z M446.69,171.846
		c1.476,0.533,2.903,1.131,4.273,1.833c-2.904,2.58-5.813,4.606-8.522,6.199C443.873,177.652,445.315,174.993,446.69,171.846z
		 M447.889,183.211c2.627-1.745,5.362-3.859,8.069-6.386c0.923,0.685,1.839,1.405,2.721,2.188
		C455.242,180.719,451.637,182.124,447.889,183.211z M464.104,175.997c-1.291-1.251-2.622-2.403-3.992-3.463
		c4.816-5.474,9.25-12.494,12.42-21.433c5.025,1.494,9.212,3.086,12.243,4.601C479.473,163.9,472.408,170.852,464.104,175.997z"/>
	<path fill="#993333" d="M461.852,52.95c19.829-7.474,43.649-11.279,56.884-10.288c40.596,3.582-15.358,61.157-15.358,61.157
		l6.541,6.184c0,0,75.092-71.583,4.74-74.537c-18.359-0.767-48.204,7.771-65.887,13.405L461.852,52.95z"/>
	<path fill="#993333" d="M491.063,164.609l-8.561,8.879c11.286-1.51,49.035-4.74,38.917-36.589
		c-3.378-10.301-12.559-23.451-27.542-37.429c-45.447-42.489-103.021-63.252-143.76-73.622c-26.848-6.834-51.477-6.45-64.971-1.953
		c-15.946,5.317-18.285,15.621-18.285,15.621s9.786-11.992,30-14.556c24.501-3.108,64.289,5.097,120.194,32.656
		c57.981,28.582,96.998,67.56,96.993,91.519C514.044,161.068,491.063,164.609,491.063,164.609z"/>
	<path fill="#993333" d="M218.287,198.989c0.445-0.661,0.878-1.263,1.273-1.728c-0.418,0.457-0.903,1.043-1.427,1.723
		C218.185,198.986,218.236,198.988,218.287,198.989z"/>
	<path fill="#993333" d="M349.177,218.186l-0.1-1.588l-0.083-7.82c-3.263,1.467-6.532,2.927-9.813,4.361
		c0,1.92-0.009,3.851-0.009,5.621c0,0.581,0.108,1.274,0,1.731c-0.072,0.308-0.729,0.862-0.941,0.903c-0.749,0.153-1.891,0-2.832,0
		c-0.978,0-1.977,0-2.839,0c-1.964,0-3.979,0.172-5.66,0c-1.188-0.121-2.033-1.19-2.642-1.889c-0.1,0.042-0.199,0.084-0.299,0.126
		c0.014,0.345,0.061,0.659-0.006,0.938c-0.108,0.434-0.63,0.556-0.788,0.902c-1.226,0-2.449,0-3.672,0
		c-49.879,20.402-96.735,33.608-107.738,17.336c-3.013-4.457-3.234-10.885-2.102-17.416c-1.112,0-2.225,0-3.332,0
		c-3.039,9.107-3.676,18.297,2.495,23.047c25.117,19.336,88.263-1.271,140.555-25.67L349.177,218.186z"/>
	<g>
		<path fill="#993333" d="M363.522,207.234c-2.164,0.027-4.437-0.051-6.532,0.041l-0.083,5.349h5.259
			c0.458-0.226,0.898-0.454,1.355-0.681C363.522,210.373,363.522,208.8,363.522,207.234z"/>
		<path fill="#993333" d="M373.549,199.014c1.914,0,3.531-0.119,4.642,0.668c1.028,0.729,1.831,1.737,2.406,2.947
			c0.28-0.843,0.936-1.55,1.604-2.197c0.641-0.623,1.47-1.166,2.596-1.266c0.934-0.076,1.973-0.047,3.04-0.021
			c61.484-34.297,110.298-75.666,110.298-75.666l-5.705-6.504c0,0-57.432,48.513-122.945,81.979
			C370.801,198.917,372.251,199.014,373.549,199.014z"/>
		<path fill="#993333" d="M371.186,205.698c-1.06,0.233-0.979,1.331-0.979,2.56c0,0.1,0,0.219,0,0.326
			c1.381-0.708,2.754-1.425,4.127-2.145c-0.128-0.349-0.305-0.639-0.621-0.741C373.166,205.523,371.677,205.591,371.186,205.698z"/>
	</g>
	<path fill="#993333" d="M354.436,128.749c-0.412-6.863,0.883-14.32,0.883-14.32c-1.507,1.296-6.841,8.927-9.405,17.478
		c-8.981,29.958,27.878,26.612,68.174,14.294c15.553-4.756,32.895-15.077,39.733-21.821c21.863-21.565,10.851-32.333-18.872-25.05
		c-9.144,2.263-21.74,6.134-32.646,17.955c-17.965,19.523,18.037,16.954,32.101,4.308c3.23-2.905,5.272-5.019,4.044-6.621
		c-1.263-1.642-4.884-1.527-7.292-0.771c-4.296,1.342-8.082,4.64-8.082,4.64s17.484-6.404,5.253,1.52
		c-10.775,6.983-35.708,6.868-12.89-7.492c27.123-17.122,45.829-8.702,30.808,6.802c-12.459,12.798-47.754,22.905-62.475,24.922
		C368.323,146.708,348.969,146.831,354.436,128.749z"/>
	<path fill="#666766" d="M132.873,168.158c5.027,0,9.089,4.062,9.089,9.089c0,4.999-4.062,9.088-9.089,9.088
		c-4.999,0-9.06-4.09-9.06-9.088C123.813,172.22,127.875,168.158,132.873,168.158z"/>
	<polygon fill="#666766" points="194.279,56.338 213.11,56.338 168.263,142.938 207.089,142.938 207.003,90.279 225.011,90.222 
		224.982,142.938 237.394,142.938 237.394,156.484 225.636,156.627 225.522,185.91 206.805,185.91 206.748,156.428 147.728,156.627 
		147.926,143.277 	"/>
	<path fill="#666766" d="M254.379,56.139l86.457,0.085l-0.143,15.337c0,0-29.623,45.614-39.508,60.81
		c-6.135,9.458-6.049,12.327-6.049,19.938c0,8.465,0,33.885,0,33.885l-18.462,0.199c0,0-0.028-25.137-0.028-33.543
		c0-10.851,0.511-14.146,10.281-28.688c8.805-13.122,35.248-52.516,35.248-52.516l-67.797,0.029V56.139L254.379,56.139z"/>
	<path fill="#666766" d="M100.21,56.139l0.085,14.797c0,0-17.183-1.051-30.703,2.102c-9.856,2.3-18.774,8.833-24.398,15.962
		c-10.083,12.753-11.219,27.323-11.219,27.323s8.918-14.457,34.509-12.44c24.597,1.96,37.889,25.477,37.889,40.729
		c0,23.547-21.046,42.121-39.536,42.121c-28.743,0-40.701-12.895-47.631-37.008c-10.565-36.867,6.789-80.917,49.818-91.229
		C78.88,56.139,100.21,56.139,100.21,56.139z M35.851,145.152c0,14.173,12.582,25.562,28.147,25.447
		c19.171-0.142,28.146-14.484,28.146-25.817c0-14.144-12.582-25.534-28.146-25.448C48.433,119.448,35.851,131.008,35.851,145.152z"
		/>
</g>
</svg>
